SplineFontDB: 1.0
FontName: MnSymbolS12
FullName: MnSymbolS12
FamilyName: MnSymbolS12
Weight: Regular
Copyright: Generated from MetaFont bitmap by mftrace 1.1.17, http://www.xs4all.nl/~hanwen/mftrace/ 
Version: 001.001
ItalicAngle: 0
UnderlinePosition: -100
UnderlineWidth: 50
Ascent: 800
Descent: 200
NeedsXUIDChange: 1
UniqueID: 4030559
OS2TypoAscent: 0
OS2TypoAOffset: 1
OS2TypoDescent: 0
OS2TypoDOffset: 1
OS2TypoLinegap: 0
OS2WinAscent: 0
OS2WinAOffset: 1
OS2WinDescent: 0
OS2WinDOffset: 1
HheadAscent: 0
HheadAOffset: 1
HheadDescent: 0
HheadDOffset: 1
OS2Vendor: 'PfEd'
Encoding: Custom
UnicodeInterp: none
NameList: Adobe Glyph List
DisplaySize: -24
AntiAlias: 1
FitToEm: 1
WinInfo: 54 18 9
BeginPrivate: 3
lenIV 1 4
BlueValues 2 []
ForceBold 5 false
EndPrivate
BeginChars: 256 28
StartChar: A
Encoding: 65 65 2
Width: 763
Flags: HMW
Back
96.5723 57.2559 m 0
 102.668 52.3604 109.725 48.4131 117.495 45.584 c 0
 124.204 43.1426 131.444 41.5322 139.053 40.8213 c 0
 179.966 37.001 246.025 135.075 304.062 222.888 c 0
 399.361 367.083 481.685 515.305 550.375 665.484 c 1
 587.465 665.484 l 1
 585.926 661.896 l 2
 509.183 490.095 417.252 323.397 311.907 164.003 c 0
 264.73 92.6201 171.281 -53.8496 109.938 -48.1221 c 0
 101.296 -47.3154 93.0654 -45.4893 85.3662 -42.6875 c 0
 76.4482 -39.4414 68.2432 -34.8887 60.9482 -29.0303 c 0
 31.7295 -5.56543 28.4561 19.3564 27.1514 34.3721 c 0
 25.6543 51.6055 35.4297 80.5371 47.7568 97.2627 c 0
 60.085 113.987 70.4561 112.398 71.8164 94.9697 c 0
 72.543 85.6631 79.4902 70.9746 96.5723 57.2559 c 0
653.975 214.188 m 0
 658.38 156.854 667.961 101.193 682.604 47.7959 c 0
 683.334 45.1309 684.36 42.6865 685.633 40.4824 c 0
 693.871 26.2129 709.598 25.8926 712.843 26.3594 c 0
 713.914 26.5137 711.397 26.1855 706.527 23.7295 c 1
 724.304 32.6973 l 2
 747.19 44.2441 766.569 45.5977 767.561 35.7178 c 0
 768.552 25.8389 750.782 8.44922 727.896 -3.09766 c 2
 710.121 -12.0654 l 2
 691.133 -21.6455 674.835 -26.1494 662.906 -27.8662 c 0
 644.853 -30.4648 617.529 -29.3633 604.312 -6.46875 c 0
 602.526 -3.37695 601.107 0.0117188 600.098 3.69531 c 0
 585.231 57.9082 575.499 114.432 571.021 172.703 c 0
 558.374 337.271 554.43 504.375 559.202 673.424 c 0
 559.499 683.937 578.33 701.374 601.236 712.348 c 0
 624.143 723.32 642.492 723.694 642.195 713.181 c 0
 637.439 544.738 641.369 378.206 653.975 214.188 c 0
319.615 165.945 m 2
 304 165.945 304.903 178.266 321.631 193.445 c 0
 338.357 208.626 364.606 220.946 380.222 220.946 c 2
 642.802 220.946 l 2
 658.416 220.946 657.514 208.627 640.786 193.446 c 0
 624.059 178.267 597.811 165.946 582.195 165.946 c 2
 319.615 165.945 l 2
EndSplineSet
Fore
27 39 m 0
 27 79 55 109 63 109 c 0
 68 109 71 104 72 95 c 0
 74 71 108 41 141 41 c 0
 182 41 247 137 304 223 c 0
 399 367 482 515 550 665 c 1
 559 665 l 1
 559 665 554 690 601 712 c 0
 613 718 624 721 631 721 c 0
 638 721 642 718 642 713 c 0
 642 700 640 658 640 575 c 0
 640 283 664 78 686 40 c 0
 693 28 707 26 712 26 c 1
 724 33 l 2
 737 39 748 42 756 42 c 0
 762 42 768 41 768 35 c 0
 768 25 750 8 728 -3 c 2
 710 -12 l 2
 687 -24 667 -29 650 -29 c 0
 624 -29 606 -17 600 4 c 0
 586 56 576 110 572 166 c 1
 320 166 l 2
 317 166 315 166 314 167 c 1
 267 96 176 -48 113 -48 c 0
 81 -48 27 -20 27 39 c 0
568 221 m 1
 561 325 557 429 557 535 c 0
 557 556 557 578 558 599 c 1
 510 499 436 357 340 207 c 1
 353 215 367 221 380 221 c 2
 568 221 l 1
EndSplineSet
EndChar
StartChar: B
Encoding: 66 66 3
Width: 630
Flags: HMW
Back
105.325 189.726 m 0
 142.595 338.805 171.815 487.804 192.853 636.064 c 1
 168.655 623.855 l 2
 145.769 612.31 126.39 610.956 125.397 620.835 c 0
 124.406 630.714 142.176 648.104 165.062 659.65 c 2
 235.587 695.231 l 2
 247.98 701.485 258.387 704.668 267.06 704.856 c 0
 275.731 705.046 279.611 702.176 278.792 696.175 c 0
 257.453 539.723 227.025 382.365 187.646 224.845 c 0
 170.37 155.744 144.052 86.7559 109.104 19.4072 c 0
 102.243 6.18652 78.9365 -10.625 57.0801 -18.1182 c 0
 35.2236 -25.6104 23.0527 -20.9619 29.9131 -7.74219 c 0
 63.1436 56.2959 88.5869 122.771 105.325 189.726 c 0
326.728 33.3613 m 0
 378.28 33.3613 418.533 48.0039 441.578 61.3096 c 0
 497.26 93.4561 510.233 150.161 511.377 154.731 c 0
 522.666 199.889 516.817 240.996 497.956 273.664 c 0
 462.072 335.816 384.266 361.97 306.405 348.82 c 0
 288.694 345.83 283.381 352.766 293.087 366.207 c 0
 302.792 379.648 322.83 393.105 343.316 399.939 c 0
 413.223 423.262 457.295 439.509 489.917 458.343 c 0
 518.535 474.865 544.627 497.858 554.947 539.141 c 0
 561.098 563.743 557.888 586.642 547.311 604.962 c 0
 528.849 636.938 490.825 652.039 452.867 649.859 c 0
 426.654 648.354 409.755 642.106 404.401 640.009 c 0
 401.691 638.947 396.238 636.672 390.313 633.251 c 0
 365.159 618.729 389.836 633.444 381.656 627.71 c 0
 312.38 579.137 244.708 453.099 187.646 224.845 c 0
 184.72 213.142 163.905 195.775 141.185 186.083 c 0
 118.465 176.39 102.399 178.022 105.325 189.726 c 0
 172.497 458.415 248.646 576.089 345.881 644.265 c 0
 354.655 650.416 363.997 656.404 373.708 662.012 c 0
 389.114 670.905 405.353 678.74 421.12 684.918 c 0
 452.87 697.358 481.794 703.198 509.854 704.81 c 0
 568.145 708.156 609.843 684.456 628.633 651.912 c 0
 637.571 636.429 646.371 610.678 637.267 574.26 c 0
 622.34 514.552 570.805 466.695 506.521 429.582 c 0
 489.737 419.892 471.982 411 454.169 402.901 c 1
 512.852 391.862 556.176 360.628 579.278 320.615 c 0
 601.869 281.487 605.205 235.884 593.696 189.851 c 0
 577.821 126.35 526.083 71.75 458.184 32.5488 c 0
 389.695 -6.99219 320.61 -21.6973 266.056 -21.6973 c 0
 203.844 -21.6973 155.813 4.16602 128.558 44.4932 c 0
 123.414 52.1035 137.356 68.9561 159.68 82.1084 c 0
 182.003 95.2617 204.295 99.7598 209.438 92.1494 c 0
 218.807 78.2871 253.899 33.3613 326.728 33.3613 c 0
EndSplineSet
Fore
641 604 m 0
 641 483 471 411 454 403 c 1
 537 387 600 328 600 240 c 0
 600 83 410 -22 266 -22 c 0
 170 -22 127 41 127 48 c 0
 127 65 173 96 199 96 c 0
 204 96 208 95 209 92 c 1
 219 78 254 33 327 33 c 0
 442 33 517 99 517 200 c 0
 517 292 441 352 346 352 c 0
 318 352 308 348 299 348 c 0
 292 348 288 351 288 355 c 0
 288 358 290 362 293 366 c 0
 337 427 558 424 558 564 c 0
 558 619 508 650 455 650 c 0
 433 650 410 645 390 633 c 0
 340 604 259 510 188 225 c 0
 170 156 144 87 109 19 c 0
 98 -1 57 -21 38 -21 c 0
 32 -21 28 -19 28 -15 c 0
 28 -4 73 61 105 190 c 0
 143 339 172 488 193 636 c 1
 169 624 l 2
 156 617 145 614 137 614 c 0
 131 614 125 616 125 622 c 0
 125 632 143 648 165 660 c 2
 236 695 l 2
 249 702 260 705 268 705 c 0
 275 705 279 702 279 697 c 0
 279 693 266 605 258 559 c 1
 357 689 478 705 518 705 c 0
 592 705 641 665 641 604 c 0
EndSplineSet
EndChar
StartChar: C
Encoding: 67 67 4
Width: 501
Flags: HMW
Back
425.112 568.185 m 0
 435.177 596.571 431.882 617.793 425.281 629.226 c 0
 421.695 635.438 416.516 640.215 410.081 643.153 c 0
 405.164 645.398 394.355 649.806 378.985 649.805 c 0
 350.244 649.805 307.838 645.563 271.04 624.318 c 0
 219.886 594.785 147.632 512.58 109.272 359.143 c 0
 85.4668 263.918 86.4424 167.376 122.954 104.137 c 0
 134.244 84.582 162.307 43.7002 225.675 33.0742 c 0
 243.153 30.1436 278.959 27.709 315.155 45.0186 c 0
 319.917 47.2949 309.856 42.2637 318.113 46.4805 c 0
 320.994 47.9512 314.763 44.6113 320.996 47.999 c 0
 321.007 48.0059 288.417 29.1416 323.839 49.5928 c 0
 340.512 59.2188 369.256 81.1084 392.318 123.506 c 0
 399.584 136.863 423.113 153.585 444.839 160.83 c 0
 466.563 168.076 478.298 163.115 471.032 149.758 c 0
 467.153 142.626 432.705 74.0986 340.444 20.832 c 0
 331.589 15.7197 333.435 16.875 331.672 15.917 c 0
 323.108 11.2607 324.592 12.1562 322.817 11.25 c 0
 314.561 7.0332 315.702 7.70312 313.924 6.85352 c 0
 250.734 -23.3633 197.503 -28.1221 157.476 -21.4102 c 0
 101.544 -12.0312 64.8545 16.9639 41.6318 57.1865 c 0
 2.63477 124.73 2.08594 224.556 26.9531 324.023 c 0
 60.5518 458.419 129.195 580.772 254.435 653.079 c 0
 318.647 690.151 381.03 704.864 439.657 704.864 c 0
 457.415 704.864 472.196 701.499 484.884 695.706 c 0
 494.954 691.108 501.903 684.316 506.604 676.176 c 0
 519.702 653.489 514.395 622.545 506.597 600.549 c 0
 493.507 563.628 476.829 526.979 456.632 491.017 c 0
 449.076 477.563 425.392 460.909 403.766 453.843 c 0
 382.14 446.776 370.721 451.96 378.276 465.413 c 0
 396.961 498.684 412.693 533.154 425.112 568.185 c 0
EndSplineSet
Fore
376 458 m 0
 376 463 431 553 431 605 c 0
 431 641 403 650 379 650 c 0
 350 650 308 646 271 624 c 0
 170 566 94 386 94 239 c 0
 94 70 188 31 251 31 c 0
 269 31 292 34 315 45 c 2
 324 50 l 2
 393 90 376 138 445 161 c 0
 452 163 457 164 462 164 c 0
 469 164 473 162 473 157 c 0
 473 151 438 77 340 21 c 0
 289 -9 237 -24 190 -24 c 0
 77 -24 10 58 10 195 c 0
 10 236 16 280 27 324 c 0
 92 586 275 705 440 705 c 0
 492 705 515 679 515 642 c 0
 515 598 468 512 457 491 c 0
 444 469 405 451 386 451 c 0
 380 451 376 453 376 458 c 0
EndSplineSet
EndChar
StartChar: D
Encoding: 68 68 5
Width: 736
Flags: HMW
Back
215.14 324.023 m 0
 241.255 428.486 258.498 532.843 266.656 635.938 c 0
 267.509 646.715 286.78 664.156 309.672 674.871 c 0
 332.563 685.586 350.451 685.536 349.598 674.76 c 0
 341.353 570.555 323.92 464.985 297.46 359.143 c 0
 270.999 253.301 235.607 147.566 191.604 43.0156 c 0
 186.271 30.3447 163.862 13.2529 141.584 4.86328 c 0
 119.306 -3.52539 105.553 -0.0507812 110.885 12.6201 c 0
 154.129 115.369 189.024 219.562 215.14 324.023 c 0
245.766 55.3467 m 2
 332.01 55.3467 410.052 80.415 467.768 113.737 c 0
 538.182 154.391 611.075 227.272 636.831 330.296 c 0
 655.934 406.706 649.275 469.232 621.769 516.875 c 0
 579.579 589.948 488.169 627.819 367.138 627.819 c 2
 277.791 627.819 l 2
 262.159 627.819 263.062 640.152 279.808 655.349 c 0
 296.554 670.545 322.831 682.879 338.463 682.879 c 2
 427.81 682.879 l 2
 549.339 682.879 654.568 647.866 703.09 563.825 c 0
 732.408 513.046 739.442 446.583 719.15 365.415 c 0
 690.941 252.576 603.38 153.686 484.373 84.9766 c 0
 379.92 24.6719 273.16 0.288086 185.094 0.288086 c 2
 78.9746 0.288086 l 2
 63.3428 0.288086 64.2461 12.6211 80.9922 27.8174 c 0
 97.7373 43.0146 124.015 55.3477 139.646 55.3477 c 2
 245.766 55.3467 l 2
148.979 599.944 m 0
 141.074 595.381 134.838 590.335 129.38 584.75 c 0
 108.571 563.459 102.807 538.629 101.663 534.056 c 0
 98.7373 522.352 77.9229 504.986 55.2031 495.294 c 0
 32.4824 485.601 16.417 487.233 19.3438 498.937 c 0
 23.4678 515.435 33.4961 545.018 65.8555 578.128 c 0
 83.3799 596.059 107.1 614.113 132.375 628.705 c 0
 141.923 634.218 138.997 632.444 140.663 633.351 c 0
 213.191 672.81 287.413 682.879 338.463 682.879 c 0
 354.095 682.879 353.191 670.545 336.446 655.349 c 0
 319.7 640.152 293.423 627.819 277.791 627.819 c 0
 219.492 627.819 174.292 613.755 151.413 601.309 c 0
 150.436 600.776 152.006 601.691 148.979 599.944 c 0
EndSplineSet
Fore
246 55 m 2
 447 55 648 194 648 412 c 0
 648 561 525 628 367 628 c 2
 345 628 l 1
 321 398 257 200 197 55 c 1
 246 55 l 2
731 452 m 0
 731 195 436 0 185 0 c 2
 79 0 l 2
 71 0 68 3 68 7 c 0
 68 20 99 47 128 54 c 1
 195 223 248 418 266 628 c 1
 236 626 163 619 129 585 c 0
 90 545 119 523 55 495 c 0
 45 491 37 489 30 489 c 0
 23 489 19 491 19 496 c 0
 19 536 122 683 338 683 c 2
 428 683 l 2
 624 683 731 596 731 452 c 0
EndSplineSet
EndChar
StartChar: E
Encoding: 69 69 6
Width: 507
Flags: HMW
Back
455.118 570.473 m 0
 467.638 594.71 460.367 613.195 456.07 620.637 c 0
 451.94 627.791 445.648 633.457 438.083 636.833 c 0
 428.124 641.276 406.056 649.805 375.175 649.805 c 0
 363.723 649.805 330.75 648.339 300.463 633.971 c 0
 298.989 633.271 301.203 634.397 297.425 632.479 c 0
 294.209 630.848 301.668 634.828 294.543 630.969 c 0
 293.434 630.367 295.343 631.479 291.783 629.424 c 0
 283.793 624.812 281.833 623.006 279.631 621.328 c 0
 261.922 607.833 238.774 581.577 229.405 544.099 c 0
 220.588 508.832 229.447 484.05 238.108 469.049 c 0
 263.206 425.578 321.325 403.273 383.612 403.273 c 0
 399.245 403.273 398.341 390.94 381.596 375.744 c 0
 364.851 360.548 338.573 348.214 322.94 348.214 c 0
 248.346 348.215 184.385 374.298 156.786 422.099 c 0
 143.143 445.73 138.515 474.697 147.085 508.979 c 0
 157.327 549.95 185.111 593.354 236.296 632.358 c 0
 243.323 637.714 256.67 647.499 275.178 658.185 c 0
 282.572 662.454 282.382 662.247 284.193 663.229 c 0
 291.318 667.089 291.46 667.071 293.28 667.995 c 0
 300.115 671.464 300.57 671.604 302.391 672.467 c 0
 329.399 685.279 379.498 704.864 435.847 704.864 c 0
 464.901 704.864 490.457 699.394 512.728 689.458 c 0
 524.011 684.424 532.062 676.819 537.393 667.588 c 0
 552.097 642.119 542.998 614.444 534.353 597.705 c 0
 531.395 591.979 528.211 586.269 524.791 580.573 c 0
 516.588 566.913 492.571 550.423 471.183 543.765 c 0
 449.794 537.105 439.092 542.788 447.294 556.448 c 0
 450.043 561.025 452.656 565.706 455.118 570.473 c 0
224.71 322.618 m 0
 187.167 300.943 133.211 249.481 113.68 171.354 c 0
 106.427 142.344 110.266 116.002 122.697 94.4697 c 0
 145.636 54.7402 195.568 33.3623 249.312 33.3623 c 0
 271.753 33.3623 300.568 37.8525 327.492 53.3965 c 0
 360.445 72.4219 384.813 105.131 396.309 124.457 c 0
 404.414 138.087 428.383 154.603 449.809 161.322 c 0
 471.233 168.043 482.044 162.435 473.938 148.806 c 0
 433.92 81.5205 374.327 42.0889 344.098 24.6367 c 0
 289.435 -6.92285 235.159 -21.6973 188.64 -21.6973 c 0
 119.906 -21.6973 65.5469 5.6543 41.376 47.5186 c 0
 31.1533 65.2236 20.9502 94.5986 31.3594 136.235 c 0
 49.9854 210.738 107.476 293.281 208.104 351.379 c 0
 269.746 386.967 330.917 403.273 383.612 403.273 c 0
 399.245 403.273 398.341 390.94 381.596 375.744 c 0
 364.851 360.548 338.573 348.214 322.94 348.214 c 0
 294.931 348.214 258.612 342.191 224.71 322.618 c 0
EndSplineSet
Fore
143 475 m 0
 143 598 307 705 436 705 c 0
 482 705 545 692 545 638 c 0
 545 586 493 541 456 541 c 0
 449 541 445 544 445 548 c 0
 445 556 462 574 462 600 c 0
 462 620 449 632 438 637 c 0
 428 641 406 650 375 650 c 0
 364 650 332 649 297 632 c 2
 297 632 302 635 295 631 c 0
 258 611 226 563 226 516 c 0
 226 448 293 403 384 403 c 0
 391 403 394 401 394 397 c 0
 394 382 354 348 323 348 c 0
 181 348 110 206 110 143 c 0
 110 79 168 33 249 33 c 0
 325 33 371 82 396 124 c 0
 406 141 443 164 465 164 c 0
 473 164 477 162 477 157 c 0
 477 155 476 152 474 149 c 0
 412 44 284 -22 189 -22 c 0
 100 -22 27 25 27 102 c 0
 27 159 78 287 231 364 c 1
 179 384 143 422 143 475 c 0
EndSplineSet
EndChar
StartChar: F
Encoding: 70 70 7
Width: 692
Flags: HMW
Back
108.42 70.3506 m 0
 128.804 35.0459 165.181 24.0859 191.915 23.7832 c 0
 194.39 23.7549 195.708 24.0176 195.999 24.0742 c 0
 196.002 24.0752 192.523 22.96 188.898 20.8672 c 1
 189.013 20.9326 186.132 19.0859 186.144 19.0947 c 0
 188.479 20.8535 196.969 29.6045 204.288 43.4736 c 0
 251.051 132.086 291.203 222.739 324.27 314.492 c 0
 362.802 421.413 391.108 529.39 408.716 636.8 c 0
 410.557 648.029 430.583 665.452 453.417 675.691 c 0
 476.251 685.931 493.288 685.127 491.447 673.898 c 0
 473.606 565.066 444.906 455.499 405.693 346.689 c 0
 372.067 253.383 331.164 160.981 283.315 70.3105 c 0
 274.914 54.3906 258.838 30.1846 228.506 7.32715 c 0
 220.125 1.01074 212.659 -3.76172 205.504 -7.89355 c 0
 180.524 -22.3145 159.793 -27.6143 151.096 -29.2988 c 0
 144.339 -30.6074 137.824 -31.3545 130.595 -31.2725 c 0
 65.6592 -30.5352 37.0088 6.23633 27.0986 23.4004 c 0
 23.0732 30.3721 19.7783 37.9482 17.2988 46.1025 c 0
 14.5703 55.0752 30.8145 72.3115 53.5596 84.5762 c 0
 76.3047 96.8408 96.9785 99.5117 99.707 90.5391 c 0
 101.915 83.2783 104.85 76.5352 108.42 70.3506 c 0
714.044 612.055 m 0
 706.363 625.357 679.544 627.819 641.307 627.819 c 2
 366.643 627.819 l 2
 357.994 627.819 336.118 627.298 312.543 617.966 c 0
 307.21 615.855 303.018 613.776 299.181 611.562 c 0
 290.611 606.614 285.343 601.825 283.407 600.114 c 0
 268.679 587.098 251.232 564.515 243.618 534.056 c 0
 240.692 522.353 219.878 504.986 197.157 495.294 c 0
 174.438 485.601 158.372 487.233 161.298 498.937 c 0
 173.248 546.734 205.59 581.418 228.535 601.696 c 0
 241.726 613.354 259.674 627.1 282.576 640.322 c 0
 297.761 649.089 313.454 656.619 328.572 662.604 c 0
 371.219 679.483 404.619 682.879 427.314 682.879 c 2
 701.979 682.879 l 2
 731.4 682.879 781.657 682.748 795.366 659.005 c 0
 799.292 652.205 800.378 643.386 797.633 632.405 c 0
 794.707 620.701 773.893 603.336 751.172 593.644 c 0
 728.451 583.95 712.387 585.583 715.312 597.286 c 0
 716.857 603.464 716.281 608.181 714.044 612.055 c 0
585.598 303.09 m 1
 334.679 303.091 l 2
 319.064 303.091 319.968 315.411 336.694 330.591 c 0
 353.422 345.771 379.671 358.092 395.286 358.092 c 2
 646.205 358.091 l 2
 655.062 358.091 658.674 354.764 657.017 348.132 c 2
 654.645 338.643 l 2
 651.723 326.952 630.931 309.605 608.235 299.922 c 0
 585.54 290.239 569.492 291.869 572.414 303.56 c 2
 574.786 313.049 l 1
 584.055 318.895 593.999 321.408 596.983 318.659 c 0
 599.967 315.91 594.866 308.936 585.598 303.09 c 1
EndSplineSet
Fore
799 643 m 0
 799 608 740 587 725 587 c 0
 719 587 715 589 715 594 c 0
 715 596 716 600 716 604 c 0
 716 622 692 628 641 628 c 2
 483 628 l 1
 465 531 439 441 410 358 c 1
 646 358 l 2
 663 358 657 348 655 339 c 0
 649 318 603 294 582 294 c 0
 575 294 571 296 572 303 c 1
 390 303 l 1
 355 214 318 136 283 70 c 0
 253 12 183 -31 132 -31 c 0
 41 -31 17 41 17 48 c 0
 17 65 62 96 89 96 c 0
 95 96 99 94 100 91 c 0
 117 34 171 24 191 24 c 1
 225 66 359 342 407 628 c 1
 367 628 l 2
 290 628 255 578 244 534 c 0
 238 513 192 489 171 489 c 0
 165 489 161 491 161 496 c 2
 161 499 l 1
 187 603 323 683 427 683 c 2
 707 683 l 2
 738 683 799 682 799 643 c 0
EndSplineSet
EndChar
StartChar: G
Encoding: 71 71 8
Width: 570
Flags: HMW
Back
490.259 574.486 m 0
 500.451 596.673 493.985 613.643 489.979 620.581 c 0
 485.54 628.271 478.49 634.115 470.261 637.105 c 0
 446.875 645.605 421.453 649.805 395.913 649.805 c 0
 364.622 649.806 318.356 645.09 278.218 621.916 c 0
 233.084 595.858 168.418 528.014 137.488 404.296 c 0
 117.252 323.349 121.325 242.964 152.252 189.397 c 0
 181.779 138.254 226.619 124.762 262.274 123.655 c 0
 271.239 123.377 294.896 123.309 319.903 133.559 c 0
 322.104 134.461 327.648 136.771 334.647 140.812 c 0
 370.429 161.471 433.89 224.857 458.681 324.023 c 0
 461.606 335.728 482.421 353.093 505.142 362.786 c 0
 527.861 372.479 543.927 370.847 541.001 359.143 c 0
 521.44 280.902 464.226 177.276 351.253 112.052 c 0
 336.641 103.616 321.347 96.0664 306.332 89.9121 c 0
 266.92 73.7568 231.751 67.6328 199.884 68.6221 c 0
 135.745 70.6133 94.8662 100.988 70.9297 142.447 c 0
 40.2734 195.545 32.2959 277.686 55.1689 369.177 c 0
 98.2471 541.49 206.268 618.723 261.612 650.676 c 0
 329.49 689.864 396.571 704.864 456.585 704.864 c 0
 488.398 704.864 517.393 699.786 543.488 690.303 c 0
 556.521 685.566 565.523 677.54 571.302 667.531 c 0
 580.961 650.801 582.019 628.863 570.438 603.654 c 0
 555.378 570.875 535.471 538.729 510.279 507.683 c 0
 498.413 493.059 472.879 477.838 453.284 473.707 c 0
 433.689 469.577 427.417 478.094 439.283 492.718 c 0
 459.273 517.354 476.789 545.169 490.259 574.486 c 0
264.405 -63.8369 m 0
 271.242 -63.8369 276.209 -63.3184 279.438 -62.8926 c 0
 287.164 -61.8721 294.622 -59.9639 298.974 -57.4512 c 0
 305.35 -53.7705 307.304 -51.3506 311.076 -47.7529 c 0
 391.226 28.6953 441.021 253.386 458.681 324.023 c 0
 461.606 335.728 482.421 353.093 505.142 362.786 c 0
 527.861 372.479 543.927 370.847 541.001 359.143 c 0
 497.372 184.63 458.189 38.4707 370.79 -44.8926 c 0
 354.862 -60.084 336.424 -74.1768 315.579 -86.2119 c 0
 284.048 -104.416 254.9 -113.771 228.408 -117.27 c 0
 217.84 -118.664 209.173 -118.896 203.733 -118.896 c 0
 162.826 -118.896 103.033 -111.583 48.5156 -74.1406 c 0
 40.2607 -68.4707 50.9033 -52.4268 72.2715 -38.3281 c 0
 93.6406 -24.2285 117.683 -17.3877 125.938 -23.0576 c 0
 174.876 -56.667 227.725 -63.8369 264.405 -63.8369 c 0
EndSplineSet
Fore
457 705 m 0
 502 705 579 696 579 639 c 0
 579 598 525 526 510 508 c 0
 496 491 464 473 444 473 c 0
 437 473 433 475 433 480 c 0
 433 491 496 558 496 598 c 0
 496 616 486 631 470 637 c 0
 447 646 421 650 396 650 c 0
 365 650 318 645 278 622 c 0
 190 571 125 428 125 307 c 0
 125 202 174 123 267 123 c 0
 382 123 444 266 459 324 c 0
 464 345 510 369 531 369 c 0
 537 369 541 367 541 362 c 2
 541 359 l 1
 497 185 454 -6 316 -86 c 0
 286 -103 248 -119 204 -119 c 0
 113 -119 45 -78 45 -68 c 0
 45 -53 94 -21 117 -21 c 0
 121 -21 124 -22 126 -23 c 0
 175 -57 228 -64 264 -64 c 0
 293 -64 301 -57 311 -48 c 0
 354 -7 389 77 414 157 c 1
 350 101 273 68 205 68 c 0
 106 68 42 142 42 269 c 0
 42 492 225 705 457 705 c 0
EndSplineSet
EndChar
StartChar: H
Encoding: 72 72 9
Width: 803
Flags: HMW
Back
253.35 370.386 m 0
 271.198 441.782 283.341 513.108 289.654 583.66 c 0
 290.49 593.001 288.596 601.746 284.495 608.849 c 0
 276.29 623.06 262.039 627.824 251.195 627.819 c 0
 250.235 627.819 206.944 628.723 172.592 614.892 c 0
 167.602 612.883 163.927 611.041 160.65 609.149 c 0
 154.249 605.453 149.094 601.132 146.763 599.102 c 0
 133.587 587.629 115.577 566.632 100.866 531.691 c 0
 95.5312 519.02 73.1211 501.928 50.8428 493.54 c 0
 28.5645 485.152 14.8135 488.629 20.1494 501.301 c 0
 34.0098 534.222 56.9395 570.254 92.917 601.584 c 0
 105.555 612.589 122.415 625.422 144.045 637.909 c 0
 158.463 646.233 173.259 653.349 187.439 659.058 c 0
 241.286 680.736 287.531 682.869 311.843 682.879 c 0
 320.005 682.882 350.686 682.008 365.817 655.799 c 0
 371.189 646.494 373.738 635.232 372.579 622.282 c 0
 366.172 550.676 353.843 478.199 335.669 405.505 c 0
 301.997 270.818 259.424 136.229 208.204 2.5957 c 0
 203.43 -9.8623 181.37 -27.0352 158.966 -35.7383 c 0
 136.561 -44.4414 122.253 -41.3945 127.027 -28.9365 c 0
 177.739 103.371 219.947 236.779 253.35 370.386 c 0
623.771 267.227 m 0
 605.668 194.818 593.303 122.479 586.801 50.9141 c 0
 585.943 41.4844 587.837 32.6162 591.937 25.5156 c 0
 599.592 12.2559 612.894 7.29297 623.506 7.94043 c 0
 637.384 8.78711 666.561 11.7285 678.037 16.8564 c 0
 678.045 16.8604 676.077 15.8184 676.126 15.8467 c 1
 675.431 15.4453 671.289 12.7412 670.685 12.04 c 1
 674.048 15.9385 677.182 23.0029 678.926 29.9795 c 0
 681.852 41.6836 702.666 59.0488 725.386 68.7412 c 0
 748.106 78.4346 764.172 76.8027 761.246 65.0986 c 0
 759.49 58.0781 754.586 41.8857 739.583 24.5 c 0
 721.827 3.9248 697.799 -9.98828 692.73 -12.9141 c 0
 683.294 -18.3623 675.354 -22.0459 671.074 -23.959 c 0
 649.344 -33.668 618.329 -43.8486 566.773 -46.9941 c 0
 535.867 -48.8799 518.767 -35.5537 510.615 -21.4355 c 0
 505.219 -12.0879 502.693 -0.713867 503.878 12.3184 c 0
 510.476 84.9316 523.026 158.412 541.45 232.107 c 0
 575.5 368.306 618.449 504.406 670.048 639.561 c 0
 674.801 652.01 696.845 669.187 719.255 677.901 c 0
 741.664 686.617 755.994 683.587 751.241 671.138 c 0
 700.142 537.291 657.553 402.355 623.771 267.227 c 0
147.852 279.922 m 2
 132.237 279.922 133.14 292.242 149.867 307.422 c 0
 166.595 322.603 192.844 334.923 208.458 334.923 c 2
 585.949 334.924 l 2
 601.563 334.924 600.661 322.604 583.934 307.424 c 0
 567.206 292.243 540.957 279.923 525.343 279.923 c 2
 147.852 279.922 l 2
EndSplineSet
Fore
126 -34 m 0
 126 -29 181 106 230 280 c 1
 148 280 l 2
 140 280 137 283 137 287 c 0
 137 301 178 335 208 335 c 2
 244 335 l 1
 272 446 290 558 290 588 c 0
 290 611 272 628 251 628 c 0
 172 628 131 603 101 532 c 0
 92 510 49 489 29 489 c 0
 23 489 19 491 19 496 c 0
 19 497 19 499 20 501 c 0
 65 609 182 683 312 683 c 0
 355 683 373 656 373 628 c 0
 373 571 340 418 317 335 c 1
 569 335 l 1
 611 485 659 610 670 640 c 0
 678 660 722 683 742 683 c 0
 748 683 752 681 752 676 c 0
 752 675 752 673 751 671 c 0
 647 398 587 133 587 47 c 0
 587 25 602 8 621 8 c 0
 630 8 658 11 673 15 c 1
 680 27 678 49 725 69 c 0
 735 73 744 75 750 75 c 0
 757 75 762 73 762 68 c 0
 762 45 715 -38 567 -47 c 2
 561 -47 l 2
 524 -47 504 -23 504 6 c 0
 504 61 536 212 556 288 c 1
 546 283 535 280 525 280 c 2
 302 280 l 1
 262 142 219 30 208 3 c 0
 200 -18 156 -40 136 -40 c 0
 130 -40 126 -38 126 -34 c 0
EndSplineSet
EndChar
StartChar: I
Encoding: 73 73 10
Width: 516
Flags: HMW
Back
309.998 627.819 m 2
 238.945 627.819 184.455 623.535 146.963 610.659 c 0
 139.421 608.069 135.169 605.894 133.626 605.003 c 0
 128.033 601.774 122.365 593.517 120.248 590.069 c 0
 116.196 583.472 112.266 574.632 109.631 564.095 c 0
 106.705 552.392 85.8906 535.025 63.1709 525.333 c 0
 40.4502 515.641 24.3848 517.272 27.3115 528.976 c 0
 30.5781 542.045 35.5811 554.274 43.0771 566.479 c 0
 58.1807 591.07 83.1846 614.228 117.021 633.764 c 0
 133.238 643.126 151.347 651.529 171.724 658.527 c 0
 217.045 674.092 271.453 682.879 370.67 682.879 c 2
 599.94 682.879 l 2
 615.572 682.879 614.669 670.545 597.924 655.349 c 0
 581.179 640.152 554.901 627.819 539.269 627.819 c 2
 309.998 627.819 l 2
429.179 631.539 m 0
 427.995 630.855 433.123 634.057 433.061 634 c 0
 381.712 587.513 335.707 383.307 329.666 359.143 c 0
 285.63 183 254.912 95.3975 177.498 40.0986 c 0
 171.397 35.7402 164.688 31.3838 157.615 27.3008 c 0
 140.567 17.458 124.524 11.0537 112.318 7.33398 c 0
 107.356 5.82129 89.5869 0.288086 67.1357 0.288086 c 0
 51.5039 0.288086 52.4072 12.6211 69.1533 27.8174 c 0
 85.8984 43.0137 112.176 55.3477 127.808 55.3477 c 0
 134.22 55.3477 139.537 56.0664 143.011 57.125 c 0
 144.302 57.5186 142.458 56.8965 141.01 56.0605 c 1
 141.858 56.5508 139.656 55.1885 139.977 55.418 c 0
 196.88 96.0654 247.337 323.987 247.346 324.024 c 0
 277.775 445.739 308.506 572.515 376.579 634.142 c 0
 387.279 643.829 399.421 652.706 412.573 660.299 c 0
 442.487 677.569 468.713 682.879 485.305 682.879 c 0
 500.937 682.879 500.033 670.546 483.288 655.35 c 0
 466.543 640.153 440.266 627.819 424.633 627.819 c 0
 414.883 627.819 429.181 631.54 429.179 631.539 c 0
385.744 55.3467 m 2
 396.062 55.3467 403.869 56.6406 409.035 57.7559 c 0
 412.037 58.4043 419.239 60.2441 421.938 61.8018 c 0
 421.946 61.8066 421.433 61.4805 421.381 61.4385 c 1
 426.682 65.6396 431.919 75.4883 434.274 84.9111 c 0
 437.201 96.6152 458.016 113.98 480.735 123.674 c 0
 503.456 133.366 519.521 131.734 516.595 120.03 c 0
 508.815 88.9131 483.603 65.3242 468.022 52.9775 c 0
 459.111 45.916 448.924 39.0352 438.543 33.041 c 0
 412.008 17.7217 387.279 9.35254 366.627 4.89453 c 0
 351.671 1.66602 337.979 0.288086 325.072 0.288086 c 2
 -18.8428 0.288086 l 2
 -34.4746 0.288086 -33.5713 12.6211 -16.8252 27.8184 c 0
 -0.0800781 43.0146 26.1973 55.3477 41.8291 55.3477 c 2
 385.744 55.3467 l 2
EndSplineSet
Fore
310 628 m 2
 222 628 159 619 134 605 c 0
 126 601 115 586 110 564 c 0
 104 543 58 519 37 519 c 0
 31 519 27 521 27 526 c 0
 27 550 65 622 172 659 c 0
 217 674 271 683 371 683 c 2
 600 683 l 2
 607 683 611 680 611 676 c 0
 611 661 570 628 539 628 c 2
 427 628 l 1
 378 572 335 382 330 359 c 0
 301 243 272 124 197 55 c 1
 386 55 l 2
 403 55 417 59 422 62 c 1
 438 78 424 100 481 124 c 0
 491 128 499 130 506 130 c 0
 513 130 517 127 517 123 c 0
 517 85 428 0 325 0 c 2
 -19 0 l 2
 -26 0 -30 3 -30 7 c 0
 -30 22 11 55 42 55 c 2
 128 55 l 2
 134 55 138 56 142 57 c 1
 198 101 247 324 247 324 c 2
 281 459 308 565 371 628 c 1
 310 628 l 2
EndSplineSet
EndChar
StartChar: J
Encoding: 74 74 11
Width: 648
Flags: HMW
Back
533.252 627.82 m 2
 491.861 627.819 458.199 615.578 436.368 602.974 c 0
 386.845 574.382 354.813 522.539 343.609 477.719 c 0
 340.683 466.015 319.869 448.649 297.148 438.957 c 0
 274.428 429.264 258.363 430.896 261.289 442.6 c 0
 280.059 517.678 339.461 585.372 419.763 631.734 c 0
 481.218 667.215 542.232 682.879 593.924 682.879 c 2
 800.423 682.879 l 2
 816.055 682.879 815.151 670.546 798.405 655.35 c 0
 781.66 640.152 755.383 627.819 739.751 627.819 c 2
 533.252 627.82 l 2
715.346 623.672 m 0
 712.287 621.906 710.643 621.029 702.343 612.789 c 0
 634.438 545.377 586.04 393.174 526.294 154.191 c 0
 506.354 74.4268 450.491 -14.3135 354.735 -72.3926 c 0
 354.669 -72.4336 403.142 -44.5498 347.554 -76.6436 c 0
 334.056 -84.4365 318.771 -92.2568 300.729 -99.4287 c 0
 260.228 -115.525 228.351 -118.896 206.823 -118.896 c 0
 138.692 -118.896 90.5928 -88.3467 65.8252 -45.4482 c 0
 46.2832 -11.6025 40.1152 31.4395 52.165 79.6387 c 0
 55.0918 91.3428 75.9062 108.708 98.626 118.401 c 0
 121.347 128.094 137.411 126.462 134.485 114.758 c 0
 123.881 72.3408 129.251 32.499 147.146 1.50195 c 0
 176.535 -49.4004 229.025 -63.8369 267.495 -63.8369 c 0
 275.322 -63.8369 295.148 -63.3799 316.473 -54.9043 c 0
 319.264 -53.7949 324.575 -51.5635 330.948 -47.8838 c 0
 386.537 -15.79 333.181 -46.5625 333.199 -46.5508 c 0
 366.252 -26.5029 422.051 31.3779 443.975 119.072 c 0
 484.901 282.781 537.112 505.222 640.385 607.745 c 0
 656.81 624.052 676.18 639.406 698.741 652.433 c 0
 729.177 670.004 758.202 679.206 783.162 681.932 c 0
 784.253 682.051 791.326 682.879 800.423 682.879 c 0
 816.055 682.879 815.151 670.546 798.405 655.35 c 0
 781.66 640.152 755.383 627.819 739.751 627.819 c 0
 735.202 627.819 731.663 627.48 730.151 627.315 c 0
 728.146 627.097 719.219 625.908 715.346 623.672 c 0
EndSplineSet
Fore
267 -64 m 0
 317 -64 356 -33 356 -33 c 1
 333 -47 l 1
 366 -27 422 31 444 119 c 0
 485 281 539 529 663 628 c 1
 533 628 l 2
 423 628 361 547 344 478 c 0
 338 457 292 433 271 433 c 0
 265 433 261 435 261 440 c 0
 261 506 407 683 594 683 c 2
 800 683 l 2
 808 683 811 680 811 676 c 0
 811 661 770 628 740 628 c 0
 717 628 713 623 702 613 c 0
 634 545 586 393 526 154 c 0
 506 74 450 -14 355 -72 c 1
 374 -61 l 1
 348 -77 l 2
 285 -113 235 -119 207 -119 c 0
 108 -119 46 -55 46 31 c 0
 46 47 48 63 52 80 c 0
 57 100 104 125 125 125 c 0
 131 125 135 123 135 118 c 0
 135 113 129 99 129 72 c 0
 129 -5 184 -64 267 -64 c 0
EndSplineSet
EndChar
StartChar: K
Encoding: 75 75 12
Width: 731
Flags: HMW
Back
156.687 391.178 m 0
 177.283 473.563 190.35 555.858 195.697 636.995 c 1
 169.654 623.855 l 2
 146.768 612.31 127.389 610.956 126.396 620.835 c 0
 125.405 630.714 143.175 648.104 166.062 659.65 c 2
 236.586 695.231 l 2
 248.657 701.322 258.8 704.48 267.43 704.837 c 0
 276.06 705.193 280.15 702.622 279.871 697.019 c 0
 275.431 607.955 261.756 517.293 239.007 426.297 c 0
 205.188 291.019 162.467 155.837 111.099 21.6074 c 0
 106.333 9.15332 84.2803 -8.02148 61.873 -16.7285 c 0
 39.4668 -25.4365 25.1494 -22.3965 29.915 -9.94238 c 0
 80.7783 122.968 123.137 256.975 156.687 391.178 c 0
648.631 649.064 m 0
 645.067 655.237 638.118 663.607 625.125 663.607 c 0
 607.395 663.607 564.34 647.178 505.278 613.079 c 0
 390.536 546.833 301.693 467.295 293.702 435.329 c 0
 285.258 401.555 323.046 260.157 394.988 135.551 c 0
 446.687 46.0088 487.21 19.5596 506.65 19.5596 c 0
 537.809 19.5596 568.012 28.3682 590.769 41.5068 c 0
 615.885 56.0078 636.453 77.9033 644.074 108.389 c 0
 646.787 119.24 660.883 130.85 675.538 134.304 c 0
 690.192 137.758 699.885 131.755 697.172 120.903 c 0
 685.988 76.1689 652.107 38.6992 607.319 12.8408 c 0
 567.256 -10.2891 522.333 -21.7012 481.179 -21.7012 c 0
 437.909 -21.7012 392.672 20.8594 343.588 105.875 c 0
 288.478 201.326 226.284 365.533 240.604 422.814 c 0
 257.172 489.085 403.771 592.695 488.728 641.745 c 0
 577.969 693.268 626.017 704.867 650.597 704.867 c 0
 660.304 704.867 685.828 703.342 700.032 678.74 c 0
 708.951 663.293 710.95 643.109 705.448 621.104 c 0
 702.735 610.252 688.64 598.642 673.985 595.188 c 0
 659.33 591.733 649.638 597.737 652.351 608.589 c 0
 656.132 623.713 654.55 638.812 648.631 649.064 c 0
EndSplineSet
Fore
481 -22 m 0
 368 -22 239 306 239 403 c 0
 239 410 239 417 241 423 c 0
 263 511 553 705 651 705 c 0
 685 705 709 681 709 645 c 0
 709 598 676 595 666 595 c 0
 658 595 652 598 652 605 c 0
 652 609 654 613 654 625 c 0
 654 647 643 664 625 664 c 0
 562 664 309 498 294 435 c 0
 293 432 293 428 293 423 c 0
 293 320 428 20 507 20 c 0
 567 20 630 52 644 108 c 0
 648 124 669 135 684 135 c 0
 692 135 698 132 698 125 c 0
 698 124 698 122 697 121 c 2
 677 42 581 -22 481 -22 c 0
29 -15 m 0
 29 -4 176 345 196 637 c 1
 170 624 l 2
 157 617 146 614 138 614 c 0
 132 614 126 616 126 622 c 0
 126 632 144 648 166 660 c 2
 237 695 l 2
 250 702 261 705 268 705 c 0
 276 705 280 702 280 697 c 0
 280 634 256 402 111 22 c 0
 103 1 59 -21 39 -21 c 0
 33 -21 29 -19 29 -15 c 0
EndSplineSet
EndChar
StartChar: L
Encoding: 76 76 13
Width: 660
Flags: HMW
Back
519.981 9.90332 m 0
 492.932 -5.71484 472.186 -12.4199 462.49 -15.2383 c 0
 452.834 -18.0449 437.368 -21.7715 420.331 -21.7715 c 0
 312.197 -21.7705 228.667 34.9775 129.544 34.9785 c 0
 125.474 34.9785 122.266 34.5342 120.051 33.9863 c 0
 118.683 33.6475 122.261 34.5791 127.86 37.8115 c 1
 127.856 37.8096 132.719 40.6836 133.715 41.6299 c 1
 130.447 38.5264 126.241 32.9268 122.974 26.9805 c 0
 115.338 13.0879 88.5498 -6.19727 63.1777 -16.0664 c 0
 37.8057 -25.9355 23.4111 -22.6699 31.0459 -8.77734 c 0
 40.582 8.57227 53.4385 22.2764 62.1152 30.5176 c 0
 73.9355 41.7441 90.7998 54.8955 111.197 66.6719 c 0
 116.851 69.9365 143.215 85.1104 172.887 92.4561 c 0
 185.513 95.582 195.923 96.7227 205.335 96.7227 c 0
 313.469 96.7227 397 39.9736 496.122 39.9736 c 0
 500.865 39.9736 505.757 40.5879 508.75 41.458 c 0
 509.41 41.6504 506.7 40.7158 503.318 38.7637 c 1
 503.626 38.9404 500.027 36.6475 500.058 36.6709 c 0
 509.395 43.8545 525.525 65.7793 532.22 92.5547 c 0
 535.195 104.46 558.979 124.018 585.307 136.212 c 0
 611.636 148.406 630.588 148.642 627.611 136.736 c 0
 615.264 87.3438 579.045 51.9795 553.084 32.0059 c 0
 543.556 24.6748 532.259 16.9912 519.981 9.90332 c 0
490.225 615.316 m 0
 478.276 636.012 459.78 643.193 443.615 643.193 c 0
 430.776 643.193 412.826 641.099 404.523 637.133 c 0
 404.521 637.132 404.85 637.311 404.82 637.293 c 0
 404.796 637.279 400.565 634.837 391.415 625.351 c 0
 313.174 544.239 268.078 339.472 251.552 273.368 c 0
 222.09 155.521 170.188 74.8633 115.869 17.71 c 0
 100.315 1.34473 70.2832 -15.7939 48.833 -20.5459 c 0
 27.3828 -25.2979 22.5967 -15.873 38.1504 0.493164 c 0
 86.9199 51.8066 130.645 127.126 156.159 229.187 c 0
 193.351 377.95 230.448 521.837 314.48 608.953 c 0
 344.715 640.295 375.08 658.604 388.157 666.154 c 0
 398.083 671.885 407.144 676.391 411.833 678.631 c 0
 456.475 699.953 492.288 704.938 519.406 704.938 c 0
 554.247 704.938 574.404 687.85 584.768 669.901 c 0
 599.725 643.993 601.933 607.21 592.287 568.626 c 0
 589.311 556.722 565.527 537.163 539.199 524.969 c 0
 512.871 512.775 493.919 512.54 496.895 524.444 c 0
 505.429 558.579 503.278 592.706 490.225 615.316 c 0
EndSplineSet
Fore
502 565 m 0
 502 610 480 643 444 643 c 0
 405 643 400 634 391 625 c 0
 313 544 268 339 252 273 c 0
 236 213 209 147 176 93 c 1
 186 95 196 97 205 97 c 0
 313 97 397 40 496 40 c 0
 499 40 502 40 504 41 c 1
 543 80 511 102 585 136 c 0
 599 142 610 146 618 146 c 0
 624 146 628 143 628 139 c 2
 628 137 l 1
 606 50 494 -22 420 -22 c 0
 313 -22 230 34 132 35 c 1
 89 -13 54 -22 39 -22 c 0
 32 -22 29 -19 29 -15 c 0
 29 -7 50 20 67 35 c 1
 104 84 136 148 156 229 c 0
 213 458 259 605 412 679 c 0
 456 700 492 705 519 705 c 0
 576 705 598 663 598 614 c 0
 598 599 596 584 592 569 c 0
 588 552 536 516 507 516 c 0
 500 516 497 518 497 522 c 0
 497 526 502 539 502 565 c 0
EndSplineSet
EndChar
StartChar: M
Encoding: 77 77 14
Width: 1154
Flags: HMW
Back
91.1807 53.6445 m 0
 95.5312 51.3096 100.099 49.2705 104.853 47.54 c 0
 114.804 43.918 125.573 41.6523 136.874 40.832 c 0
 167.965 38.5771 198.611 106.012 252.638 251.675 c 0
 254.411 256.458 255.728 260.052 257.037 263.647 c 0
 305.396 396.513 339.139 530.391 357.793 665.213 c 1
 358.176 665.069 l 1
 358.264 665.069 l 1
 358.209 674.802 372.26 689.325 390.688 698.262 c 0
 409.955 707.605 426.747 707.319 428.17 697.623 c 0
 449.89 549.608 479.644 404.582 517.322 263.08 c 0
 532.006 207.937 552.198 155.448 577.641 106.248 c 1
 550.571 79.1094 l 1
 536.511 34.2236 l 1
 530.948 34.2236 526.766 35.7852 524.915 39.0146 c 0
 491.546 97.2529 465.729 160.394 447.886 227.405 c 0
 419.232 335.01 395.143 444.646 375.664 556.086 c 1
 354.25 455.125 325.02 353.315 288.255 252.285 c 0
 286.781 248.237 285.3 244.192 283.304 238.809 c 0
 242.798 129.595 175.618 -53.0361 108.024 -48.1338 c 0
 95.5967 -47.2314 83.7529 -44.7461 72.7236 -40.7324 c 0
 67.4551 -38.8145 62.3721 -36.5469 57.5 -33.9326 c 0
 54.4238 -32.2822 38.8516 -24.0029 29.2441 -11.2275 c 0
 22.8359 -2.70703 26.2168 22.9062 36.791 45.9453 c 0
 47.3652 68.9844 61.1475 80.7676 67.5557 72.2471 c 0
 72.1123 66.1885 80.9258 59.1475 91.1807 53.6445 c 0
994.829 205.047 m 0
 989.708 152.229 989.678 100.254 994.729 49.8145 c 0
 995.136 45.7617 996.316 42.1279 998.101 39.0381 c 0
 1003.95 28.9004 1013.6 27.3174 1017.67 27.1406 c 1
 1028.69 32.6973 l 2
 1051.57 44.2432 1070.95 45.5977 1071.94 35.7178 c 0
 1072.94 25.8389 1055.17 8.44922 1032.28 -3.09766 c 2
 1014.5 -12.0654 l 2
 993.244 -22.79 976.245 -26.6436 964.58 -27.6455 c 0
 949.795 -28.916 927.104 -25.7969 916.778 -7.91211 c 0
 914.133 -3.3291 912.41 1.9707 911.808 7.98145 c 0
 906.653 59.4395 906.677 112.515 911.917 166.569 c 0
 924.761 299.063 943.791 432.402 968.942 566.188 c 1
 1046.03 660.203 l 1
 1068.21 687.636 l 1
 1068.19 687.091 1068.12 686.517 1067.99 685.915 c 0
 1034.7 524.918 1010.28 364.388 994.829 205.047 c 0
711.602 217.505 m 0
 659.299 156.161 604.379 97.0547 547.052 40.3584 c 0
 534.841 28.2822 526.508 35.8418 528.451 57.2314 c 0
 530.394 78.6221 541.881 105.784 554.092 117.86 c 0
 609.872 173.027 663.073 230.311 713.432 289.373 c 0
 826.979 422.547 937.722 557.615 1045.56 694.449 c 0
 1057.92 710.135 1068.16 707.522 1068.42 688.618 c 0
 1068.68 669.715 1058.86 641.642 1046.49 625.956 c 0
 937.687 487.892 826.023 351.705 711.602 217.505 c 0
EndSplineSet
Fore
416 705 m 0
 423 705 427 703 428 698 c 0
 450 550 480 405 517 263 c 0
 530 217 546 172 566 130 c 1
 617 181 667 235 713 289 c 2
 1046 694 l 2
 1051 701 1056 705 1060 705 c 0
 1067 705 1068 695 1068 688 c 0
 1068 675 1024 507 995 205 c 0
 992 177 991 148 991 121 c 0
 991 54 993 28 1018 27 c 1
 1029 33 l 2
 1041 39 1053 42 1061 42 c 0
 1066 42 1072 41 1072 35 c 0
 1072 25 1055 8 1032 -3 c 2
 1014 -12 l 2
 993 -23 973 -28 958 -28 c 0
 931 -28 914 -14 912 8 c 0
 909 34 908 60 908 86 c 0
 908 173 934 370 961 521 c 1
 712 218 l 2
 676 175 549 32.9932 537 33.9932 c 0
 531 33.9932 527 36 525 39 c 0
 492 97 466 160 448 227 c 0
 419 335 395 445 376 556 c 1
 354 455 325 353 288 252 c 2
 283 239 l 2
 243 131 177 -48 111 -48 c 0
 83 -48 26 -28 26 3 c 0
 26 30 49 75 62 75 c 0
 67 75 92 41 138 41 c 0
 169 41 199 108 253 252 c 2
 257 264 l 2
 305 397 339 530 358 665 c 0
 358 681 393 705 416 705 c 0
EndSplineSet
EndChar
StartChar: N
Encoding: 78 78 15
Width: 785
Flags: HMW
Back
770.81 646.883 m 1
 768.653 641.869 766.507 636.082 765.031 632.03 c 0
 751.533 594.944 736.281 541.284 718.812 478.468 c 0
 675.666 323.32 636.598 168.044 601.633 12.7676 c 1
 600.649 15.627 l 1
 566.373 15.627 l 1
 600.876 167.195 639.232 318.896 681.406 470.554 c 0
 690.244 502.331 714.03 589.038 733.812 643.393 c 0
 740.218 660.99 744.749 671.509 747.763 678.193 c 0
 752.187 688.003 763.481 711.426 775.946 722.857 c 0
 809.773 753.88 852.834 772.615 933.12 772.616 c 0
 942.798 772.616 944.407 752.681 936.713 728.116 c 0
 929.018 703.552 914.918 683.616 905.24 683.616 c 0
 842.804 683.615 800.504 671.918 770.81 646.883 c 1
37.8975 53.4619 m 0
 42.0889 51.2588 46.4727 49.3242 51.0244 47.667 c 0
 61.1895 43.9668 72.1914 41.6592 83.7363 40.833 c 0
 103.862 39.3936 120.76 56.3584 149.048 134.076 c 0
 157.181 156.421 165.299 181.223 173.27 205.664 c 0
 222.983 358.102 256.727 511.693 273.777 665.459 c 1
 273.909 665.069 l 1
 312.782 665.069 l 1
 293.15 512.868 257.9 357.591 207.405 202.758 c 0
 199.417 178.263 190.48 150.775 180.267 122.714 c 0
 138.195 7.12695 95.9424 -51.0703 54.8994 -48.1338 c 0
 42.2236 -47.2266 30.1436 -44.6982 18.8955 -40.6045 c 0
 13.8594 -38.7715 8.99023 -36.624 4.30957 -34.1641 c 0
 1.15527 -32.5059 -14.8135 -24.1934 -24.7051 -11.2959 c 0
 -31.1602 -2.87891 -27.8398 22.6816 -17.2949 45.7588 c 0
 -6.74902 68.8359 7.04785 80.7334 13.5029 72.3164 c 0
 18.2451 66.1338 27.3506 59.0059 37.8975 53.4619 c 0
496.464 222.77 m 0
 516.659 169.188 540.896 117.89 569.001 69.2061 c 0
 578.656 52.4805 588.769 36.0645 599.331 19.9688 c 0
 604.406 12.2354 593.396 -2.9873 574.755 -14.0107 c 0
 556.113 -25.0342 536.865 -27.7031 531.79 -19.9697 c 0
 521.077 -3.64551 510.822 13.0029 501.031 29.9629 c 0
 472.531 79.3301 447.962 131.334 427.489 185.652 c 0
 368.969 340.916 317.857 500.115 274.282 662.849 c 0
 271.824 672.027 285.382 687.474 304.545 697.325 c 0
 323.708 707.178 341.256 707.724 343.714 698.544 c 0
 387.158 536.298 438.118 377.571 496.464 222.77 c 0
EndSplineSet
Fore
58 -48 m 0
 30 -48 -28 -28 -28 3 c 0
 -28 30 -6 75 8 75 c 0
 13 75 38 41 86 41 c 0
 116 41 135 88 173 206 c 0
 223 358 257 512 274 665 c 0
 274 681 308 705 331 705 c 0
 338 705 343 703 344 699 c 0
 387 536 438 378 496 223 c 0
 518 165 545 109 576 57 c 1
 607 186 700 573 748 678 c 0
 758 702 785 773 933 773 c 0
 939 773 942 766 942 757 c 0
 942 732 922 684 905 684 c 0
 843 684 801 672 771 647 c 1
 749 597 668 306 602 13 c 1
 601 16 l 1
 601 -0 566 -24 543 -24 c 0
 538 -24 534 -23 532 -20 c 0
 491 42 455 112 427 186 c 0
 380 312 337 442 299 574 c 1
 273 422 231 262 180 123 c 0
 139 10 98 -48 58 -48 c 0
EndSplineSet
EndChar
StartChar: O
Encoding: 79 79 16
Width: 763
Flags: HMW
Back
150.363 393.304 m 0
 125.432 293.579 133.455 196.613 172.615 128.786 c 0
 207.789 67.8633 265.849 33.3613 339.625 33.3613 c 0
 398.408 33.3613 440.186 53.7588 461.248 65.9199 c 0
 527.685 104.276 612.753 196.51 644.632 324.024 c 0
 670.536 427.642 665.7 522.517 631.047 582.536 c 0
 622.162 597.926 590.309 649.805 513.732 649.805 c 0
 509.872 649.805 500.063 649.675 489.122 647.303 c 0
 479.88 645.3 473.836 642.744 468.722 639.792 c 0
 459.157 634.27 457.965 632.391 455.675 630.495 c 0
 426.78 606.586 389.391 557.048 358.624 479.529 c 0
 353.649 466.994 331.464 449.849 309.103 441.257 c 0
 286.741 432.666 272.631 435.866 277.605 448.401 c 0
 315.083 542.832 362.589 600.587 405.591 636.169 c 0
 419.072 647.325 434.733 658.516 452.116 668.552 c 0
 459.306 672.702 492.211 691.643 531.427 700.143 c 0
 546.64 703.439 560.735 704.864 574.404 704.864 c 0
 643.845 704.864 687.001 673.424 712.369 629.486 c 0
 748.634 566.676 754.057 467.563 726.951 359.143 c 0
 698.951 247.14 617.544 117.809 477.854 37.1592 c 0
 409.503 -2.30176 341.242 -21.6973 278.953 -21.6973 c 0
 187.188 -21.6973 126.165 21.4375 91.2939 81.835 c 0
 50.0869 153.207 41.8125 253.264 68.043 358.185 c 0
 97.3291 475.33 185.497 604.072 334.324 691.283 c 0
 356.682 704.385 378.878 708.769 383.87 701.068 c 0
 388.862 693.368 374.769 676.486 352.411 663.386 c 0
 268.361 614.133 181.34 517.21 150.363 393.304 c 0
EndSplineSet
Fore
744 490 m 0
 744 190 484 -22 279 -22 c 0
 127 -22 53 96 53 241 c 0
 53 540 334 705 372 705 c 0
 380 705 384 702 384 697 c 0
 384 689 375 676 352 663 c 0
 208 579 136 418 136 280 c 0
 136 146 204 33 340 33 c 0
 509 33 661 226 661 448 c 0
 661 558 619 650 514 650 c 0
 479 650 464 638 456 630 c 0
 427 607 389 557 359 480 c 0
 350 458 307 437 287 437 c 0
 280 437 276 439 276 443 c 0
 276 445 277 446 278 448 c 0
 356 646 491 705 574 705 c 0
 697 705 744 607 744 490 c 0
EndSplineSet
EndChar
StartChar: P
Encoding: 80 80 17
Width: 662
Flags: HMW
Back
208.914 299.122 m 0
 237.107 411.895 256.425 524.563 266.666 636.061 c 0
 267.662 646.904 287.045 664.345 309.932 674.992 c 0
 332.817 685.639 350.584 685.48 349.588 674.637 c 0
 339.25 562.097 319.747 448.293 291.234 334.241 c 0
 262.722 220.19 225.288 106.245 179.234 -6.5918 c 0
 174.093 -19.1904 151.802 -36.3125 129.479 -44.8096 c 0
 107.155 -53.3066 93.2109 -49.9775 98.3525 -37.3789 c 0
 143.739 73.8223 180.722 186.351 208.914 299.122 c 0
148.979 599.944 m 0
 141.074 595.381 134.838 590.335 129.38 584.75 c 0
 108.571 563.459 102.807 538.629 101.663 534.056 c 0
 98.7373 522.352 77.9229 504.986 55.2031 495.294 c 0
 32.4824 485.601 16.417 487.233 19.3438 498.937 c 0
 23.4678 515.435 33.4961 545.018 65.8555 578.128 c 0
 83.3799 596.059 107.1 614.113 132.375 628.705 c 0
 141.923 634.218 138.997 632.444 140.663 633.351 c 0
 213.191 672.81 287.413 682.879 338.463 682.879 c 0
 354.095 682.879 353.191 670.545 336.446 655.349 c 0
 319.7 640.152 293.423 627.819 277.791 627.819 c 0
 219.492 627.819 174.292 613.755 151.413 601.309 c 0
 151.341 601.269 177.625 616.482 148.979 599.944 c 0
498.826 298.486 m 0
 542.334 323.604 594.28 373.007 612.937 447.63 c 0
 621.908 483.517 617.341 514.758 602.419 540.604 c 0
 568.915 598.634 485.188 627.819 395.846 627.819 c 2
 277.791 627.819 l 2
 262.159 627.819 263.062 640.152 279.808 655.349 c 0
 296.554 670.545 322.831 682.879 338.463 682.879 c 2
 456.518 682.879 l 2
 558.264 682.879 648.022 649.42 683.741 587.554 c 0
 700.178 559.084 705.629 524.241 695.256 482.749 c 0
 673.85 397.122 606.276 322.174 515.432 269.726 c 0
 476.062 246.996 391.272 205.24 290.2 205.24 c 0
 274.568 205.24 275.472 217.573 292.217 232.77 c 0
 308.963 247.966 335.24 260.299 350.872 260.299 c 0
 391.002 260.299 447.826 269.041 498.826 298.486 c 0
EndSplineSet
Fore
351 260 m 0
 526 260 618 394 618 483 c 0
 618 570 525 628 396 628 c 2
 345 628 l 1
 325 450 277 234 179 -7 c 0
 171 -26 131 -50 108 -50 c 0
 101 -50 97 -47 97 -42 c 0
 97 -28 229 243 266 628 c 1
 245 627 165 621 129 585 c 0
 109 563 103 539 102 534 c 0
 97 517 56 489 30 489 c 0
 23 489 19 491 19 496 c 0
 19 505 33 544 66 578 c 0
 136 650 248 683 338 683 c 2
 457 683 l 2
 600 683 701 619 701 523 c 0
 701 372 493 205 290 205 c 0
 283 205 279 208 279 213 c 0
 279 229 325 260 351 260 c 0
EndSplineSet
EndChar
StartChar: Q
Encoding: 81 81 18
Width: 778
Flags: HMW
Back
416.148 51.248 m 0
 430.001 56.25 446.582 63.2852 465.274 74.0771 c 0
 537.693 115.888 619.249 205.111 648.977 324.023 c 0
 671.4 413.719 663.881 500.835 628.513 562.095 c 0
 596.157 618.135 542.45 649.805 475.128 649.805 c 0
 421.445 649.805 383.485 631.405 364.312 620.335 c 0
 307.345 587.445 231.132 507.375 202.792 394.018 c 0
 186.975 330.748 193.075 269.567 218.457 225.605 c 0
 244.232 180.962 286.162 157.817 336.924 157.817 c 0
 362.132 157.818 394.734 163.142 425.177 180.717 c 0
 426.427 181.438 427.676 182.177 429.309 183.185 c 0
 451.299 196.754 474.356 202.215 480.776 195.374 c 0
 487.197 188.533 474.562 171.969 452.572 158.399 c 0
 448.308 155.768 445.047 153.842 441.782 151.957 c 0
 420.683 139.775 353.173 102.759 276.253 102.759 c 0
 231.702 102.759 172.824 116.842 137.136 178.654 c 0
 109.833 225.942 103.304 290.224 120.473 358.898 c 0
 145.509 459.043 219.259 574.937 347.706 649.095 c 0
 446.838 706.328 521.979 704.864 535.8 704.864 c 0
 621.116 704.864 677.608 664.861 709.834 609.045 c 0
 747.223 544.287 755.031 454.079 731.297 359.143 c 0
 704.045 250.136 622.974 126.776 481.879 45.3164 c 0
 456.818 30.8477 427.21 16.2891 394.245 4.38672 c 0
 299.92 -29.6699 202.803 -27.5293 138.097 -27.5293 c 0
 122.464 -27.5293 123.367 -15.1963 140.113 0 c 0
 156.858 15.1963 183.136 27.5293 198.768 27.5293 c 0
 292.665 27.5303 357.643 30.124 416.148 51.248 c 0
610.777 -69.6689 m 0
 614.592 -69.6689 617.913 -69.3975 619.829 -69.1953 c 0
 627.48 -68.3838 635.921 -66.1895 640.096 -63.7793 c 0
 646.13 -60.2959 651.939 -52.874 652.499 -52.1885 c 0
 664.71 -37.2324 668.861 -21.1201 669.752 -17.5596 c 0
 672.678 -5.85547 693.492 11.5098 716.212 21.2021 c 0
 738.933 30.8955 754.997 29.2627 752.071 17.5596 c 0
 746.074 -6.43066 732.945 -25.6494 723.301 -37.4629 c 0
 708.433 -55.6738 685.683 -75.8076 656.7 -92.54 c 0
 623.705 -111.59 591.665 -121.178 566.554 -123.839 c 0
 559.604 -124.576 553.227 -124.729 550.105 -124.729 c 0
 394.371 -124.729 284.098 -27.5293 138.097 -27.5293 c 0
 122.464 -27.5293 123.367 -15.1963 140.113 0 c 0
 156.858 15.1963 183.136 27.5293 198.768 27.5293 c 0
 354.503 27.5303 464.776 -69.6689 610.777 -69.6689 c 0
EndSplineSet
Fore
745 465 m 0
 745 245 569 53 365 -5 c 1
 446 -33 522 -70 611 -70 c 0
 625 -70 657 -68 670 -18 c 0
 675 3 722 28 742 28 c 0
 749 28 752 25 752 21 c 0
 752 -23 654 -125 550 -125 c 0
 394 -125 284 -28 138 -28 c 0
 131 -28 127 -25 127 -21 c 0
 127 -6 168 28 199 28 c 0
 322 28 393 32 465 74 c 0
 590 146 662 294 662 424 c 0
 662 555 591 650 475 650 c 0
 305 650 194 452 194 326 c 0
 194 230 249 158 337 158 c 0
 414 158 437 198 470 198 c 0
 478 198 482 195 482 190 c 0
 482 183 473 171 453 158 c 2
 442 152 l 2
 421 140 353 103 276 103 c 0
 177 103 111 174 111 285 c 0
 111 487 328 705 536 705 c 0
 676 705 745 598 745 465 c 0
EndSplineSet
EndChar
StartChar: R
Encoding: 82 82 19
Width: 805
Flags: HMW
Back
212.392 313.031 m 0
 239.424 421.162 257.583 529.188 266.66 635.994 c 0
 267.579 646.802 286.901 664.243 309.791 674.927 c 0
 332.681 685.61 350.512 685.511 349.594 674.703 c 0
 340.424 566.818 322.077 457.614 294.711 348.15 c 0
 267.346 238.686 231.053 129.329 186.146 21.1211 c 0
 180.901 8.4834 158.547 -8.62207 136.247 -17.0615 c 0
 113.948 -25.501 100.106 -22.0938 105.351 -9.45605 c 0
 149.542 97.0273 185.359 204.901 212.392 313.031 c 0
148.979 599.944 m 0
 141.074 595.381 134.838 590.335 129.38 584.75 c 0
 108.571 563.459 102.807 538.629 101.663 534.056 c 0
 98.7373 522.352 77.9229 504.986 55.2031 495.294 c 0
 32.4824 485.601 16.417 487.233 19.3438 498.937 c 0
 23.4678 515.435 33.4961 545.018 65.8555 578.128 c 0
 83.3799 596.059 107.1 614.113 132.375 628.705 c 0
 141.923 634.218 138.997 632.444 140.663 633.351 c 0
 213.191 672.81 287.413 682.879 338.463 682.879 c 0
 354.095 682.879 353.191 670.545 336.446 655.349 c 0
 319.7 640.152 293.423 627.819 277.791 627.819 c 0
 219.492 627.819 174.292 613.755 151.413 601.309 c 0
 150.436 600.776 152.006 601.691 148.979 599.944 c 0
521.151 358.427 m 0
 553.109 376.879 595.942 415.979 611.54 478.37 c 0
 620.413 513.861 617.396 540.874 605.381 561.684 c 0
 574.688 614.846 483.761 627.819 373.898 627.819 c 2
 277.791 627.819 l 2
 262.159 627.819 263.062 640.152 279.808 655.349 c 0
 296.553 670.545 322.831 682.879 338.463 682.879 c 2
 434.57 682.879 l 2
 548.526 682.879 651.273 669.998 686.703 608.634 c 0
 700.508 584.724 703.862 553.497 693.859 513.489 c 0
 675.459 439.885 616.427 375.087 537.756 329.667 c 0
 469.607 290.321 400.613 273.551 342.993 273.551 c 0
 327.36 273.551 328.265 285.884 345.01 301.08 c 0
 361.755 316.276 388.032 328.609 403.665 328.609 c 0
 459.72 328.609 500.945 346.762 521.151 358.427 c 0
484.662 270.045 m 0
 515.905 215.931 537.063 135.787 567.068 83.8184 c 0
 583.542 55.2852 604.226 33.3613 627.415 33.3613 c 0
 638.938 33.3623 648.904 35.2393 655.106 36.8887 c 0
 662.475 38.8477 668.308 41.2441 673.625 44.3145 c 0
 679.525 47.7207 684.586 51.7998 689.293 56.1533 c 0
 696.661 62.9688 706.989 74.4121 716.068 90.0361 c 0
 723.947 103.594 747.8 120.168 769.31 127.032 c 0
 790.82 133.896 801.884 128.464 794.005 114.906 c 0
 778.738 88.6348 759.676 68.8564 747.147 57.2676 c 0
 733.655 44.7871 714.53 29.583 690.229 15.5537 c 0
 666.153 1.65332 641.001 -8.60059 618.959 -14.4619 c 0
 599.954 -19.5156 582.746 -21.6973 566.743 -21.6973 c 0
 523.448 -21.6973 500.659 11.0371 485.746 36.8672 c 0
 454.503 90.9814 433.345 171.125 403.34 223.094 c 0
 386.866 251.627 366.183 273.551 342.993 273.551 c 0
 327.36 273.551 328.265 285.884 345.01 301.08 c 0
 361.755 316.276 388.032 328.609 403.665 328.609 c 0
 446.96 328.609 469.748 295.875 484.662 270.045 c 0
EndSplineSet
Fore
467 296 m 1
 526 226 553 33 627 33 c 0
 663 33 691 47 716 90 c 0
 729 112 767 129 786 129 c 0
 793 129 797 127 797 123 c 0
 797 121 796 118 794 115 c 0
 748 36 645 -22 567 -22 c 0
 475 -22 455 133 403 223 c 0
 387 252 366 274 343 274 c 0
 335 274 332 276 332 280 c 0
 332 295 373 329 404 329 c 0
 545 329 617 434 617 516 c 0
 617 600 527 628 374 628 c 2
 345 628 l 1
 318 383 249 173 186 21 c 0
 177 -1 134 -22 114 -22 c 0
 108 -22 104 -20 104 -15 c 0
 104 -1 233 259 266 628 c 1
 235 626 163 619 129 585 c 0
 90 545 119 523 55 495 c 0
 45 491 37 489 30 489 c 0
 23 489 19 491 19 496 c 0
 19 536 122 683 338 683 c 2
 435 683 l 2
 552 683 700 671 700 556 c 0
 700 452 598 343 467 296 c 1
EndSplineSet
EndChar
StartChar: S
Encoding: 83 83 20
Width: 578
Flags: HMW
Back
531.54 544.059 m 2
 536.942 565.664 535.823 587.656 526.716 603.43 c 0
 522.929 609.99 517.788 615.489 511.417 619.57 c 0
 472.324 644.61 431.438 649.805 403.114 649.805 c 0
 392.529 649.805 364.342 649.05 335.763 636.713 c 0
 331.418 634.837 327.813 633.001 324.544 631.113 c 0
 316.266 626.334 310.864 621.527 308.879 619.764 c 0
 295.343 607.736 279.463 587.025 272.437 558.917 c 0
 265.175 529.871 269.806 504.24 282.668 481.962 c 0
 294.643 461.223 319.457 432.475 382.448 401.308 c 0
 440.156 372.756 501.512 339.225 530.607 288.83 c 0
 546.356 261.551 552.635 229.213 542.729 189.589 c 0
 527.045 126.854 475.677 72.8164 408.44 33.998 c 0
 338.955 -6.11914 267.238 -21.6973 208.978 -21.6973 c 0
 126.732 -21.6973 63.7773 14.5322 30.1406 69.291 c 0
 29.7637 69.9033 29.3936 70.5195 28.9141 71.3496 c 0
 12.5977 99.6104 11.8613 136.081 26.0332 173.923 c 0
 33.9062 194.944 47.7188 212.107 57.2998 222.16 c 0
 63.0449 228.188 75.4414 240.668 95.8799 252.468 c 0
 132.519 273.62 151.517 270.119 156.635 263.121 c 0
 162.072 255.685 148.426 238.894 126.173 225.641 c 0
 103.92 212.389 81.4453 207.668 76.0068 215.104 c 0
 75.7725 215.425 92.3564 212.086 112.485 223.707 c 1
 110.176 222.374 123.055 231.107 122.043 230.045 c 0
 117.183 224.945 111.42 216.693 107.308 205.713 c 0
 95.9561 175.4 96.1035 142.778 110.235 118.301 c 0
 110.651 117.581 110.973 117.048 111.299 116.517 c 0
 144.68 62.1729 204.023 33.3623 269.649 33.3623 c 0
 324.126 33.3623 367.644 48.791 391.835 62.7578 c 0
 415.202 76.249 448.014 104.889 460.409 154.47 c 0
 468.823 188.127 463.704 216.906 449.285 241.88 c 0
 422.649 288.013 364.217 320.754 307.103 349.013 c 0
 240.12 382.154 214.082 412.953 201.347 435.012 c 0
 187.172 459.563 181.316 488.599 190.116 523.798 c 0
 201.428 569.043 231.99 601.785 253.647 621.026 c 0
 266.859 632.765 284.923 646.586 307.939 659.874 c 0
 320.339 667.033 333.037 673.367 345.459 678.729 c 0
 395.347 700.264 437.311 704.864 463.786 704.864 c 0
 512.537 704.864 554.366 692.744 588.421 670.932 c 0
 596.968 665.457 603.381 658.446 608.038 650.38 c 0
 620.953 628.011 619.016 599.797 613.86 579.178 c 2
 610.09 564.096 l 2
 607.164 552.392 586.351 535.026 563.63 525.333 c 0
 540.909 515.641 524.845 517.272 527.77 528.976 c 2
 531.54 544.059 l 2
EndSplineSet
Fore
186 491 m 0
 186 604 337 705 464 705 c 0
 546 705 596 671 608 650 c 0
 615 638 618 624 618 610 c 0
 618 599 616 588 614 579 c 2
 610 564 l 2
 605 543 558 519 537 519 c 0
 530 519 526 522 528 529 c 2
 532 544 l 2
 534 553 535 562 535 569 c 0
 535 592 526 610 511 620 c 0
 472 645 431 650 403 650 c 0
 296 650 269 572 269 532 c 0
 269 480 309 438 382 401 c 0
 447 369 547 320 547 226 c 0
 547 102 379 -22 209 -22 c 0
 107 -22 16 41 16 124 c 0
 16 217 108 269 142 269 c 0
 151 269 158 265 158 259 c 0
 158 249 139 231 114 219 c 1
 105 205 99 184 99 163 c 0
 99 100 171 33 270 33 c 0
 382 33 464 94 464 186 c 0
 464 260 392 307 307 349 c 0
 238 383 186 427 186 491 c 0
EndSplineSet
EndChar
StartChar: T
Encoding: 84 84 21
Width: 516
Flags: HMW
Back
265.178 147.472 m 2
 378.035 598.902 l 2
 381.012 610.807 404.795 630.365 431.123 642.56 c 0
 457.451 654.754 476.404 654.988 473.428 643.084 c 2
 360.57 191.653 l 2
 343.031 121.495 318.607 51.3994 287.555 -17.7227 c 0
 281.621 -30.9287 255.849 -50.3887 230.025 -61.1592 c 0
 204.202 -71.9297 188.06 -69.9521 193.992 -56.7451 c 0
 224.123 10.3232 248 78.7617 265.178 147.472 c 2
743.634 649.065 m 0
 723.063 637.189 705.623 630.722 687.981 626.693 c 0
 671.176 622.857 655.474 621.208 616.812 621.208 c 2
 202.635 621.208 l 2
 198.454 621.208 191.268 621.057 182.141 619.44 c 0
 173.955 617.991 165.782 615.287 163.281 613.844 c 0
 160.036 611.97 152.993 605.073 147.832 598.223 c 0
 136.943 583.771 127.114 561.988 129.338 537.38 c 0
 130.24 527.386 109.482 508.071 83.001 494.269 c 0
 56.5205 480.466 34.2969 477.375 33.3936 487.37 c 0
 32.2061 500.514 31.8262 531.576 61.3447 570.753 c 0
 77.9863 592.841 105.903 619.197 146.618 642.704 c 0
 182.512 663.428 216.751 675.006 243.786 679.794 c 0
 256.025 681.962 267.456 682.952 278.426 682.952 c 2
 692.603 682.953 l 2
 711.549 682.953 731.188 682.99 743.453 685.791 c 0
 746.411 686.466 740.493 685.733 726.971 677.927 c 1
 726.979 677.931 703.182 655.786 705.272 664.149 c 0
 708.249 676.055 732.032 695.612 758.36 707.807 c 0
 784.688 720.001 803.641 720.236 800.665 708.331 c 0
 795.092 686.04 771.008 664.871 743.634 649.065 c 0
EndSplineSet
Fore
43 482 m 0
 34 482 33 485 33 496 c 0
 33 590 177 683 278 683 c 2
 720 683 l 1
 743 703 777 717 791 717 c 0
 797 717 801 715 801 711 c 0
 801 689 753 641 688 627 c 0
 671 623 655 621 617 621 c 2
 468 621 l 1
 361 192 l 2
 343 121 319 51 288 -18 c 0
 277 -42 223 -68 202 -68 c 0
 196 -68 193 -66 193 -62 c 0
 193 -58 236 31 265 147 c 2
 378 599 l 2
 380 605 387 613 397 621 c 1
 203 621 l 2
 165 621 157 610 148 598 c 0
 138 585 129 566 129 544 c 2
 129 537 l 2
 129 521 74 482 43 482 c 0
EndSplineSet
EndChar
StartChar: U
Encoding: 85 85 22
Width: 600
Flags: HMW
Back
204.145 19.3555 m 0
 197.968 15.79 190.778 11.8555 183.482 8.17383 c 0
 166.044 -0.625977 148.176 -7.93262 131.508 -12.9443 c 0
 113.537 -18.3467 95.2559 -21.6973 77.5186 -21.6973 c 0
 27.9834 -21.6973 7.28809 7.12793 -0.22168 20.1348 c 0
 -18.7314 52.1943 -22.4912 102.301 -8.66895 157.592 c 0
 30.1592 312.906 178.533 558.518 145.319 616.046 c 0
 140.477 624.433 132.394 627.819 122.204 627.819 c 0
 118.95 627.819 109.857 627.631 99.9229 625.262 c 0
 93.7832 623.798 87.9453 621.716 82.9785 618.849 c 0
 80.4805 617.407 78.4697 615.947 77.2891 615.064 c 0
 57.4854 600.248 32.0684 590.969 20.5537 594.35 c 0
 9.03809 597.73 15.7656 612.498 35.5693 627.313 c 0
 45.1055 634.448 55.54 641.354 66.374 647.609 c 0
 91.7188 662.242 117.696 672.28 139.616 677.506 c 0
 155.396 681.269 169.653 682.879 182.876 682.879 c 0
 206.322 682.879 219.706 675.009 226.642 662.996 c 0
 265.822 595.133 114.304 355.32 73.6514 192.711 c 0
 59.2334 135.039 67.0244 91.4639 81.0996 67.0859 c 0
 84.1113 61.8691 100.489 33.3623 138.19 33.3623 c 0
 147.572 33.3623 155.816 34.9297 162.801 37.0293 c 0
 169.109 38.9258 174.71 41.3545 179.871 43.959 c 0
 181.41 44.7354 182.118 44.9863 187.539 48.1162 c 0
 311.187 119.504 530.886 432.729 582.15 637.789 c 0
 585.076 649.493 605.891 666.858 628.611 676.552 c 0
 651.332 686.244 667.396 684.612 664.471 672.908 c 0
 616.949 482.82 401.865 133.509 204.145 19.3555 c 0
519.535 199.619 m 0
 507.052 149.686 499.415 99.8047 496.747 50.7236 c 0
 496.483 45.8691 497.54 41.4346 499.61 37.8496 c 0
 504.692 29.0469 513.657 27.8125 516.318 27.9346 c 0
 517.17 27.9746 513.196 27.7471 505.231 23.7295 c 1
 523.008 32.6973 l 2
 545.895 44.2441 565.273 45.5977 566.265 35.7178 c 0
 567.256 25.8389 549.486 8.44922 526.6 -3.09766 c 2
 508.824 -12.0654 l 2
 486.443 -23.3574 469.557 -26.5469 458.554 -27.0557 c 0
 452.529 -27.334 428.992 -27.6416 418.288 -9.10156 c 0
 415.022 -3.44531 413.337 3.3916 413.774 11.4385 c 0
 416.509 61.75 424.337 112.99 437.215 164.5 c 0
 476.864 323.096 525.401 481.602 582.611 639.285 c 0
 587.089 651.626 608.956 668.839 631.422 677.706 c 0
 653.889 686.573 668.487 683.754 664.01 671.413 c 0
 607.194 514.816 558.955 357.299 519.535 199.619 c 0
EndSplineSet
Fore
233 633 m 0
 233 527 66 268 66 134 c 0
 66 73 94 33 138 33 c 0
 250 33 464 343 544 528 c 2
 582 639 l 2
 588 656 628 683 655 683 c 0
 661 683 665 680 665 676 c 0
 665 666 648 613 627 565 c 0
 581 429 497 157 497 55 c 0
 497 44 498 31 514 28 c 1
 523 33 l 2
 536 39 547 42 555 42 c 0
 560 42 566 41 566 35 c 0
 566 25 549 8 527 -3 c 2
 509 -12 l 2
 488 -23 470 -27 455 -27 c 0
 429 -27 414 -12 414 9 c 0
 414 84 447 206 469 287 c 1
 299 44 156 -22 78 -22 c 0
 10 -22 -17 31 -17 94 c 0
 -17 230 150 494 150 594 c 0
 150 615 142 628 122 628 c 0
 73 628 64 594 27 594 c 0
 20 594 15 597 15 602 c 0
 15 619 99 683 183 683 c 0
 219 683 233 664 233 633 c 0
EndSplineSet
EndChar
StartChar: V
Encoding: 86 86 23
Width: 583
Flags: HMW
Back
153.294 565.69 m 0
 126.791 611.599 90.1855 634.317 44.6309 634.317 c 0
 29.7695 634.317 27.7285 645.246 40.0723 658.711 c 0
 52.418 672.177 74.498 683.105 89.3594 683.105 c 0
 170.788 683.105 206.318 630.822 221.265 604.934 c 0
 303.079 463.216 263.585 159.597 244.019 44.0186 c 1
 219.657 23.3584 200.298 8.14453 188.941 0 c 1
 166.776 -27.4062 l 1
 166.113 -25.6602 166.309 -23.9951 167.494 -22.8086 c 1
 163.708 -26.5947 255.96 387.856 153.294 565.69 c 0
576.771 475.356 m 0
 579.271 482.224 581.192 488.473 582.707 494.531 c 0
 585.134 504.237 584.257 503.425 584.408 505.404 c 0
 586.408 531.535 575.206 573.479 533.736 588.572 c 0
 524.594 591.9 514.319 593.718 503.02 593.718 c 0
 493.342 593.719 491.732 613.654 499.428 638.219 c 0
 507.122 662.782 521.223 682.719 530.9 682.719 c 0
 543.68 682.718 555.359 680.668 565.865 676.844 c 0
 593.525 666.776 635.16 634.009 628.824 551.24 c 0
 627.84 538.379 625.594 524.021 621.749 508.642 c 0
 618.012 493.694 613.322 478.644 607.99 463.994 c 0
 523.024 230.556 227.406 -9.1377 181.847 -41.8105 c 0
 170.119 -50.2207 163.779 -38.3154 167.695 -15.2363 c 0
 171.611 7.84277 184.309 33.4004 196.036 41.8105 c 0
 301.734 117.611 525.939 335.698 576.771 475.356 c 0
EndSplineSet
Fore
167 -27 m 1
 164 -24 202 137 202 312 c 0
 202 461 170 634 45 634 c 0
 36 634 32 637 32 642 c 0
 32 656 63 683 89 683 c 0
 198 683 271 590 271 340 c 0
 271 245 260 150 250 85 c 1
 422 229 584 427 584 515 c 0
 584 563 547 594 503 594 c 0
 497 594 494 600 494 609 c 0
 494 634 514 683 531 683 c 0
 588 683 629 642 629 568 c 0
 629 313 192 -44 175 -44 c 0
 170 -44 167 -37 167 -27 c 1
EndSplineSet
EndChar
StartChar: W
Encoding: 87 87 24
Width: 941
Flags: HMW
Back
142.598 573.902 m 0
 133.659 589.385 105.973 634.317 44.6309 634.317 c 0
 29.7695 634.317 27.7285 645.246 40.0723 658.711 c 0
 52.418 672.177 74.498 683.105 89.3594 683.105 c 0
 126.429 683.105 176.372 672.377 210.568 613.145 c 0
 274.975 501.582 250.365 273.88 224.875 128.611 c 1
 279.057 200.017 329.824 273.03 376.954 347.254 c 0
 435.127 438.87 487.612 532.088 534.215 626.27 c 1
 529.727 640.515 l 2
 526.864 649.483 540.048 664.914 559.154 674.958 c 0
 578.261 685.002 596.091 685.875 598.954 676.906 c 0
 633.537 568.562 659.392 456.021 676.326 340.104 c 0
 689.877 247.353 697.688 152.617 699.731 56.3398 c 1
 678.817 30.124 662.181 10.4629 652.809 0 c 2
 630.272 -27.8643 l 1
 630.355 85.7471 622.423 197.372 606.515 306.26 c 0
 592.966 399.004 573.656 489.583 548.694 577.562 c 1
 499.798 479.749 445.592 384.057 386.481 290.964 c 0
 314.757 178.005 235.99 69.1396 150.799 -35.0664 c 0
 138.436 -50.1895 128.592 -46.7539 128.592 -27.3965 c 0
 128.592 -27.2051 128.599 -27.0117 128.599 -26.8184 c 0
 128.364 -25.7432 128.399 -24.6797 128.727 -23.6904 c 0
 129.297 -14.9053 131.644 -4.76074 135.143 5.01367 c 0
 155.687 100.581 226.021 429.4 142.598 573.902 c 0
932.078 462.684 m 0
 936.321 474.341 939.588 484.904 941.994 494.531 c 0
 948.896 522.141 948.79 575.208 907.745 590.147 c 0
 901.41 592.453 894.203 593.718 886.084 593.718 c 0
 876.406 593.718 874.797 613.654 882.492 638.219 c 0
 890.188 662.782 904.287 682.719 913.965 682.719 c 0
 923.518 682.718 932.146 681.231 939.874 678.419 c 0
 989.014 660.534 1001.34 589.84 981.036 508.642 c 0
 976.258 489.527 970.192 470.269 963.297 451.321 c 0
 885.928 238.755 674.021 -11.2529 651.085 -36.8594 c 0
 638.757 -50.6221 629.524 -45.2793 630.476 -24.9326 c 0
 631.427 -4.58594 642.204 23.0967 654.531 36.8594 c 0
 718.922 108.747 880.584 321.209 932.078 462.684 c 0
EndSplineSet
Fore
182 370 m 0
 182 495 155 634 45 634 c 0
 36 634 32 637 32 642 c 0
 32 656 63 683 89 683 c 0
 216 683 252 551 252 399 c 0
 252 308 239 210 225 129 c 1
 341 282 447 451 534 626 c 1
 530 641 l 2
 525 655 562 683 587 683 c 0
 593 683 598 681 599 677 c 0
 649 521 690 324 699 90 c 1
 817 239 945 436 945 523 c 0
 945 558 930 594 886 594 c 0
 880 594 878 600 878 609 c 0
 878 634 897 683 914 683 c 0
 958 683 990 649 990 581 c 0
 990 372 699 17 651 -37 c 0
 646 -42 642 -44 639 -44 c 0
 634 -44 630 -39 630 -28 c 0
 630 214 594 418 549 578 c 1
 438 355 303 151 151 -35 c 0
 146 -41 141 -44 137 -44 c 0
 132 -44 129 -39 129 -27 c 2
 127 -21 182 187 182 370 c 0
EndSplineSet
EndChar
StartChar: X
Encoding: 88 88 25
Width: 682
Flags: HMW
Back
589.824 25.9844 m 0
 575.764 17.8672 562.839 12.6484 552.584 9.30859 c 0
 526.141 0.696289 503.357 0.288086 493.536 0.288086 c 0
 474.26 0.288086 449.579 5.21973 433.424 33.2012 c 0
 418.069 59.7969 414.696 97.7617 411.939 132.562 c 2
 382.115 509.085 l 2
 379.382 543.596 375.562 579.976 362.259 603.016 c 0
 360.096 606.762 349.515 627.819 322.798 627.819 c 0
 307.735 627.819 298.724 625.66 296.884 625.062 c 0
 296.872 625.058 299.197 625.773 303.785 628.422 c 0
 308.241 630.994 312.771 633.497 313.448 634.68 c 1
 312.273 632.628 310.747 629.172 309.659 624.819 c 0
 306.733 613.115 285.919 595.75 263.199 586.058 c 0
 240.479 576.364 224.413 577.996 227.339 589.7 c 0
 228.991 596.309 231.445 602.714 235.335 609.502 c 0
 242.696 622.349 259.506 641.204 287.181 657.183 c 0
 301.07 665.202 313.955 670.449 324.421 673.858 c 0
 350.864 682.472 373.647 682.879 383.47 682.879 c 0
 402.745 682.879 427.426 677.947 443.581 649.966 c 0
 458.936 623.37 462.31 585.405 465.065 550.604 c 2
 494.89 174.082 l 2
 497.623 139.571 501.443 103.191 514.746 80.1514 c 0
 516.909 76.4053 527.49 55.3477 554.208 55.3477 c 0
 567.165 55.3477 576.13 56.8057 580.122 58.1055 c 0
 580.134 58.1094 577.808 57.3936 573.22 54.7451 c 1
 573.225 54.748 560.656 43.4258 563.557 48.4883 c 0
 564.732 50.5391 566.258 53.9951 567.347 58.3486 c 0
 570.272 70.0518 591.087 87.417 613.807 97.1104 c 0
 636.527 106.803 652.592 105.171 649.666 93.4668 c 0
 647.374 84.2988 644.091 77.8906 641.67 73.665 c 0
 634.309 60.8184 617.499 41.9629 589.824 25.9844 c 0
56.9648 21.5596 m 0
 48.4111 36.376 46.3467 59.374 52.7314 84.9111 c 0
 80.5879 196.336 675.316 490.227 693.543 563.137 c 0
 698.392 582.528 697.387 602.394 690.307 614.657 c 0
 684.855 624.099 676.922 627.819 669.95 627.819 c 0
 654.317 627.819 655.222 640.153 671.967 655.35 c 0
 688.712 670.546 714.989 682.879 730.622 682.879 c 0
 756.4 682.879 767.735 668.35 771.628 661.607 c 0
 780.183 646.791 782.247 623.793 775.863 598.256 c 0
 748.007 486.831 153.278 192.94 135.051 120.03 c 0
 130.203 100.639 131.206 80.7734 138.287 68.5098 c 0
 143.738 59.0684 151.672 55.3477 158.645 55.3477 c 0
 174.276 55.3477 173.373 43.0146 156.628 27.8184 c 0
 139.883 12.6221 113.605 0.288086 97.9727 0.288086 c 0
 72.1943 0.288086 60.8574 14.8174 56.9648 21.5596 c 0
EndSplineSet
Fore
398 311 m 1
 139 150 132 136 132 96 c 0
 132 70 144 55 159 55 c 0
 166 55 169 53 169 49 c 0
 169 34 129 0 98 0 c 0
 63 0 49 25 49 56 c 0
 49 114 87 158 395 350 c 1
 382 509 l 2
 378 564 370 628 323 628 c 0
 318 628 314 628 311 627 c 1
 300 600 258 580 238 580 c 0
 231 580 227 582 227 587 c 0
 227 606 277 683 383 683 c 0
 453 683 460 613 465 551 c 2
 477 401 l 1
 693 536 697 551 697 587 c 0
 697 613 685 628 670 628 c 0
 662 628 659 630 659 635 c 0
 659 649 700 683 731 683 c 0
 765 683 780 658 780 627 c 0
 780 575 751 533 480 362 c 1
 495 174 l 2
 499 119 507 55 554 55 c 0
 559 55 563 56 566 56 c 1
 577 83 619 103 639 103 c 0
 646 103 650 101 650 96 c 0
 650 77 600 0 494 0 c 0
 424 0 417 70 412 133 c 2
 398 311 l 1
EndSplineSet
EndChar
StartChar: Y
Encoding: 89 89 26
Width: 642
Flags: HMW
Back
267.858 553.988 m 0
 237.247 607.012 195.611 634.317 144.525 634.317 c 0
 142.029 634.317 140.294 633.992 139.476 633.797 c 1
 138.911 633.199 137.862 631.902 135.916 629.143 c 0
 126.589 615.918 105.288 603.128 88.3682 600.593 c 0
 71.4482 598.058 65.2861 606.733 74.6133 619.958 c 0
 91.626 644.082 112.254 655.677 123.401 663.227 c 0
 132.091 668.243 142.378 673.209 154.039 677.021 c 0
 167.309 681.359 179.07 683.105 189.254 683.105 c 0
 261.835 683.105 306.933 643.284 335.829 593.231 c 0
 415.734 454.82 401.672 185.917 390.033 66.0488 c 1
 364.662 40.2383 339.536 16.7529 315.562 -3.85547 c 1
 323.847 66.8018 360.212 394.015 267.858 553.988 c 0
139.657 633.98 m 1
 139.808 634.057 139.972 634.144 140.137 634.238 c 1
 140.137 634.238 139.657 634.443 139.657 633.98 c 1
129.764 -54.8125 m 0
 142.045 -59.2832 155.786 -61.6982 170.553 -61.6982 c 0
 244.076 -61.6982 538.806 199.706 632.225 456.371 c 0
 638.603 473.896 643.954 491.181 648.23 508.285 c 0
 656.116 539.827 648.903 590.18 602.652 607.016 c 0
 594.047 610.147 584.354 611.865 573.647 611.865 c 0
 564.001 611.865 560.688 627.77 566.255 647.366 c 0
 571.82 666.962 584.167 682.866 593.813 682.866 c 0
 606.359 682.866 617.83 680.857 628.16 677.098 c 0
 686.154 655.988 702.264 584.279 684.489 513.182 c 0
 678.77 490.301 671.679 467.485 663.491 444.989 c 0
 551.511 137.328 232.553 -132.699 150.386 -132.698 c 0
 133.749 -132.698 118.26 -129.993 104.256 -124.896 c 0
 65.8945 -110.932 34.1426 -77.3887 29.1602 -21.4434 c 0
 27.7695 -5.82617 35.6084 16.4561 46.6582 28.292 c 0
 57.708 40.1289 67.8057 37.0605 69.1963 21.4424 c 0
 71.4912 -4.32617 86.5293 -39.0752 129.764 -54.8125 c 0
EndSplineSet
Fore
29 -20 m 0
 29 12 47 35 59 35 c 0
 65 35 68 31 69 21 c 0
 73 -23 109 -62 171 -62 c 0
 197 -62 254 -27 319 30 c 1
 327 102 330 168 330 227 c 0
 330 501 254 634 145 634 c 2
 139 634 l 1
 136 631 114 600 83 600 c 0
 75 600 70 603 70 609 c 0
 70 624 127 683 189 683 c 0
 365 683 400 442 400 252 c 0
 400 194 396 141 393 100 c 1
 600 312 651 494 651 531 c 0
 651 571 626 612 574 612 c 0
 567 612 564 619 564 630 c 0
 564 655 582 683 594 683 c 0
 662 683 691 629 691 567 c 0
 691 549 689 531 684 513 c 0
 603 187 242 -133 150 -133 c 0
 72 -133 29 -72 29 -20 c 0
EndSplineSet
EndChar
StartChar: Z
Encoding: 90 90 27
Width: 697
Flags: HMW
Back
681.723 622.491 m 0
 655.861 607.56 631.664 598.782 611.167 595.383 c 0
 604.897 594.343 598.957 593.737 592.163 593.737 c 0
 509.906 593.737 448.714 621.208 372.784 621.208 c 0
 368.932 621.208 353.02 621.043 336.107 616.738 c 0
 324.477 613.777 319.059 610.791 318.089 610.231 c 0
 310.958 606.114 302.352 594.788 301.188 593.203 c 0
 289.362 577.099 285.381 561.489 284.272 557.057 c 0
 281.296 545.152 257.513 525.594 231.185 513.399 c 0
 204.856 501.205 185.903 500.971 188.88 512.875 c 0
 194.571 535.641 205.596 553.346 214.045 564.853 c 0
 240.562 600.967 279.296 626.315 301.427 639.092 c 0
 332.838 657.228 362.945 668.593 387.941 674.956 c 0
 401.781 678.479 423.202 682.953 448.575 682.952 c 0
 530.832 682.952 592.024 655.482 667.954 655.482 c 0
 670.856 655.482 673.107 655.792 674.019 655.943 c 0
 678.01 656.605 672.306 655.535 665.061 651.352 c 1
 665.063 651.354 656.663 645.54 657.166 646.025 c 0
 674.489 662.736 704.82 679.011 724.869 682.354 c 0
 744.918 685.695 747.13 674.846 729.808 658.135 c 0
 718.465 647.192 701.905 634.144 681.723 622.491 c 0
407.446 364.975 m 0
 493.213 452.22 574.683 543.945 651.111 639.463 c 0
 663.557 655.016 692.641 673.292 716.032 680.257 c 0
 739.424 687.222 748.308 680.251 735.862 664.698 c 0
 657.219 566.411 572.94 471.449 483.33 380.295 c 0
 365.596 260.532 242.917 144.885 115.612 33.7344 c 0
 96.166 16.7559 65.7773 1.79004 47.7812 0.328125 c 0
 29.7852 -1.13281 30.9619 11.46 50.4082 28.4395 c 0
 173.411 135.833 292.604 248.155 407.446 364.975 c 0
549.495 30.6992 m 0
 543.4 27.1807 513.381 10.1875 482.271 3.45801 c 0
 471.383 1.10352 462.102 0.214844 453.453 0.214844 c 0
 342.977 0.213867 239.706 27.6846 133.648 27.6846 c 0
 126.881 27.6846 121.899 27.0889 118.613 26.6133 c 0
 116.444 26.2998 103.726 24.0205 98.5176 21.0137 c 0
 98.0352 20.7354 98.251 20.8584 98.0098 20.7041 c 0
 72.8408 4.65527 45.6943 -3.71875 37.4141 2.0127 c 0
 29.1348 7.74414 42.8418 25.4209 68.0107 41.4697 c 0
 73.4209 44.9199 77.6484 47.4453 81.8545 49.874 c 0
 100.376 60.5674 139.902 81.1826 183.601 87.5059 c 0
 192.737 88.8281 201.289 89.4297 209.439 89.4297 c 0
 319.916 89.4297 423.188 61.959 529.244 61.959 c 0
 533.649 61.959 536.986 62.4014 539.295 62.9004 c 0
 542.655 63.627 536.709 61.7979 532.833 59.5596 c 1
 532.839 59.5635 528.311 56.5264 529.293 57.3281 c 0
 551.085 75.0977 573.357 119.482 582.334 155.389 c 0
 585.31 167.293 609.093 186.852 635.421 199.046 c 0
 661.75 211.24 680.702 211.475 677.726 199.57 c 0
 659.265 125.727 616.783 80.624 588.303 57.3994 c 0
 577.83 48.8604 564.676 39.4639 549.495 30.6992 c 0
517.945 341.152 m 0
 515.795 343.97 517.39 342.161 515.971 343.221 c 0
 513.77 344.864 515.72 343.449 514.798 344.005 c 0
 504.153 350.427 476.793 352.136 432.732 352.135 c 2
 300.064 352.135 l 2
 287.006 352.135 282.077 361.319 289.062 372.635 c 0
 296.048 383.951 312.316 393.135 325.375 393.135 c 2
 458.043 393.135 l 2
 482.113 393.135 535.01 394.907 558.775 380.569 c 0
 559.41 380.186 558.661 380.886 561.81 378.535 c 0
 565.355 375.888 564.979 375.862 569.021 370.642 c 0
 569.569 369.935 570.569 367.424 570.854 366.569 c 0
 572.599 361.322 572.675 361.04 571.037 351.382 c 0
 569.248 340.832 554.334 329.062 539.771 325.63 c 0
 525.209 322.198 515.812 328.221 518.274 338.946 c 0
 518.622 340.464 518.401 340.02 518.238 340.512 c 0
 518.184 340.676 518.369 340.598 517.945 341.152 c 0
EndSplineSet
Fore
572 359 m 0
 572 334 542 325 532 325 c 0
 517 325 518 333 518 340 c 0
 518 349 483 351 456 352 c 1
 378 273 285 185 175 86 c 1
 188 88 200 89 209 89 c 0
 320 89 423 62 529 62 c 2
 535 62 l 1
 555 82 574 122 582 155 c 0
 587 172 639 208 668 208 c 0
 674 208 678 206 678 202 c 2
 678 200 l 1
 642 56 512 0 453 0 c 0
 343 0 240 28 134 28 c 0
 89 28 79 0 46 0 c 0
 38 0 35 2 35 7 c 0
 35 13 41 22 55 32 c 0
 194 154 305 261 395 352 c 1
 300 352 l 2
 287 352 282 361 289 373 c 0
 296 384 312 393 325 393 c 2
 435 393 l 1
 513 475 572 543 616 596 c 1
 608 595 600 594 592 594 c 0
 510 594 449 621 373 621 c 0
 338 621 299 615 284 557 c 0
 280 540 228 504 199 504 c 0
 192 504 189 506 189 511 c 2
 189 513 l 1
 211 602 345 683 449 683 c 0
 531 683 592 655 668 655 c 1
 692 673 719 683 731 683 c 0
 740 683 741 679 741 676 c 0
 741 673 740 670 735 664 c 0
 684 600 607 509 495 392 c 1
 555 390 572 379 572 359 c 0
EndSplineSet
EndChar
